<?xml version="1.0" encoding="UTF-8"?>
<svg id="Layer_1" xmlns="http://www.w3.org/2000/svg" version="1.1" viewBox="0 0 595.28 841.89">
  <!-- Generator: Adobe Illustrator 29.8.2, SVG Export Plug-In . SVG Version: 2.1.1 Build 3)  -->
  <defs>
    <style>
      .st0 {
        fill: #4e919f;
      }

      .st1 {
        fill: #284973;
      }

      .st2 {
        fill: #eaebee;
      }

      .st3 {
        fill: #1d284e;
      }

      .st4 {
        fill: #3d84a7;
      }

      .st5 {
        fill: #2f3454;
      }

      .st6 {
        fill: #b5d1d0;
      }

      .st7 {
        fill: #fafafb;
      }

      .st8 {
        fill: #5ba2bf;
      }

      .st9 {
        fill: #a0c7c5;
      }

      .st10 {
        fill: #70b1cb;
      }

      .st11 {
        fill: #4f9ba3;
      }

      .st12 {
        fill: #43889c;
      }

      .st13 {
        fill: #4794b5;
      }

      .st14 {
        fill: #39769b;
      }

      .st15 {
        fill: #30628b;
      }
    </style>
  </defs>
  <g id="oftTHq.tif">
    <g>
      <path class="st9" d="M445.75,281.32c-1.38-3.21-1.95-.67-3.76-.5-.69.06-1.74-.71-2.25-.29s-.44,1.78-.95,2.57c-.41.62-1.48,1.09-1.76,1.73-.46,1.04-.06,2.04-.73,3.27-.61,1.1-5.26,2.9-5.51,2.72-.07-.05-.12-1.1-.71-1.53-.93-.68-2.04-.11-2.7-1.3-.93-1.68-.09-3.67-.04-5.41.02-.96-.58-2.6-.49-2.96.5-2.09,6.88.43,7.72-.76.4-1.08-.05-3-.57-3.98-.83-1.56-3.09-1.85-3.2-3.53,4.03.49,5.85-3.02,8.23-5.01.54-.45,1.74-.53,2.06-.97.65-.89-1.95-3.72-.04-4.51,1.27-.53,1.85,1.63,2.11,2.39.21.63.06,2,.15,2.09.07.07,1.47-.04,2.1.14,2.92.81,1.89-.13,3.06-.06,1.85.12,3.47,2.84,2.33-2.57h1.5c-1.34-2.79.13-1.92,2.49-2-.56-1.6-2.54-.7-3.66-1.08-.56-.19-2.15-2.67-2.25-3.28-.33-2.02,2.89-2.9.17-4.63l-2.78,3.74c-.34,2.23,1.84,2.7,1.99,3.56-1.52,2.5-.06,5.07-3.95,5.18.44-1.12-1.23-4.78-1.99-5.27-1.27-.82-3.05,1.08-4.27-.21-.37-.39-1.81-4.13-1.67-4.66.38-1.53,2.68-1.43,3.47-2.2,2.71-2.63-.31-7.49,8.18-6.11,2.09.34,8.45,6.31,10.8,7.68l.46,1.78-2.48-.25c.59.68,1.44,2.45,2.24,2.75.42.16.09-.64.42-.83,1-.59,1.72.42,1.33-2.17.28-.35,3.24,2.14,2.49.26-.64-1.6-3.86-5.75-5.08-7.41-17.27-23.41-43.63-38.77-72.84-41.31l.5-5.99c27.15,1.46,54.62,15.96,71.92,36.73,54.92,65.94,33.39,177.94-51.68,205.56-6.25,2.03-13.26,3.78-19.74,4.48-.12-.72.88-.7,1.39-.84,6.73-1.89,12.38-3.27,18.92-6.06,46.68-19.87,75.65-65.84,75.34-116.48-.64,1.43-3.67,2.81-4.25,3.49-1.5.17-.91-.87-1-1.73-.46-4.58-1.67-9.02-3.24-13.26-.25-.66-3.64-9.37-4.74-7.99,1.96,6.23,4.03,12.36,5.47,18.75l3.02,5.72c-.06.26,0,.68,0,1,.03,1.82,1.17,1.41,1,0,.32,0,.72.05,1,0l.5-.5c.83-.2,1.05-.14,1,.74-.18,3.23-2.34,8.66-4.09,11.4s-4.27,4.57-5.49,8c-1.47,4.12-.98,10-2.97,13.52-1.01,1.79-4.88,3.69-6.16,5.83-1.05,1.75-.68,3.63-2.05,5.45-.76,1.02-1.88,1.35-2.43,2.06-3.67,4.69-6.38,10.17-13.26,10.75-3.11.26-.27-2.32-.04-3.56.35-1.85-.12-4.38.06-6.43.12-1.31.96-2.42,1-4.04.05-2.15-.99-4-.44-6.39,1.14-4.95,5.2-5.51,4.33-13.54-.33-3.08-2.9-5.94-2.99-7.55-.11-1.98,3.27-7.27.2-8.14-.96-.27-2.54.15-3.07-.17-.36-.22-.48-2.76-2.34-2.94-1.66-.16-3.98,2.11-5.6,2.41s-2.64-.45-3.77-.31c-1.62.21-2.25,2.08-4.83,1.14-.54-.2-3.63-2.56-3.96-3.04-.87-1.27-.81-3.22-1.45-4.54-.59-1.22-2.18-2-2.5-3-1.42-4.5,1.95-6.62,1.36-11.36-.1-.82-.79-1.51-.84-2.1-.11-1.16,3.51-8.16,4.44-9.34s2.68-1.95,3.15-3.34c.5-1.49.03-2.87.65-4.35.53-1.28,3.23-3.38,3.92-5.06,3.66,2.28,5.26-1.04,8.47-1.52,2.21-.33,4.91.14,7.19,0,.57,1.13.45,5.16.97,5.77.72.86,3.07.86,4.19,1.68s1.53,2.39,3.63,3c1.6.46-.41-3.28,2.45-3,1.17.12,3.85,2.71,5.89,3.19,1.66.39,3.12-.23,4.88.82,1.14-2.56-.29-4.83,0-7.49-2.93.74-7.38-.94-7.91-4.38-.27-1.73,1.66-3.14-1.88-3.1-2.52.03.15,2.86.16,4.14,0,.96-.6,1.77-1.6,1.33-.73-.33-3.49-6.99-3.73-8.26l-6.52-5.72c.01,3.43,3.65,5.6,5.88,7.73-.8,1.62-.81,3.11-1.89,4.9-.69,1.14-2.77-.52-2.49-1.64,3.04.22,3.04-1.31,1.33-3.33l-4.32-3.17c-.07-.69-.39-.75-.5-1ZM466.73,283.31c-1.98.82-3.32-4.56-4.49-3.49-.14.13-.97,3.51-.98,3.79-.21,4.43,4.02,2.35,5.61,2.79,1.73.48,2.38,3.39,4.86,2.41.58-2.53-3.15-4.09-3.77-5.51-.44-1.03.45-1.75.03-2.48-1.07-1.85-2.35,1.26-1.26,2.5ZM480.21,306.8c-.53-.58-1.01-.04-1.01.76,0,1.7,1.03,5.21,2.51,6.24.28-1.19-.91-6.35-1.5-6.99Z"/>
      <path class="st3" d="M148.03,385.23c-26.03-17.79-50-38.66-70.71-62.45v-.98c46.58-60.29,128.01-110.8,206.47-85.07,3.83,1.26,24.8,9.84,26.09,12.38.81,1.6-2.95-.04-3.38-.12-29.77-5.65-57.39-3.75-86.42,4.73-46.01,13.45-87.07,42.7-118.5,78.31,16.94,15.45,35.58,29,54.94,41.21-.04-.02.14.64-.65.43-2.53-.7-3.82-4.39-4.84,1.07,1.59.51,1.23-.95,2.21-1.03.84-.06,1.89.04,1.27,1.02-.26.41-6.46,3.88-7.48,4.52l3,2.24c.05,2.69-6.27-1.5-3.27,1.76.29.31,3.64,2.18,1.27,1.98Z"/>
      <path class="st3" d="M210.97,475.15c.75,2.71,1.66,7.04,1.93,9.81.22,2.19-.45,4.73.56,6.68-1.52,11.74-6.89,18.49-17.14,24.08-.66.36-3.48.65-1.1,1.4,26.05,8.19,30.25,40.99,9.98,57.93-14.26,11.93-39.38,13.61-56.68,8.76-14.7-4.13-28.09-14.98-30.47-30.72l16.74-1.55c2.14.07,2.26,3.27,3.34,5.2,12.61,22.53,67.78,16.86,60.11-14.66-2.42-9.97-14.66-16.97-24.49-16.97h-21.73v-15.99h20.23c14.32,0,27.97-13.8,21.48-28.47-8.23-18.58-47.32-16.76-55.53,2.02l-18.15-1.02c7.29-25.44,35.25-33.03,59.05-29.32,12.41,1.93,28.27,9.91,31.87,22.83Z"/>
      <path class="st12" d="M525.67,535.59h-76.93c.73,33.53,43.25,42.26,63.26,19.02,1.52,1.14,10.78,7.46,10.6,8.61-.15,1-4.61,5.42-5.66,6.35-23.49,20.86-65.11,15.8-80.27-12.67-21.02-39.46,11.16-88.94,56.75-76.24,24.38,6.79,34.25,31.32,32.25,54.92ZM508.69,522.1c-1.37-38.04-56.98-36.65-59.44,0h59.44Z"/>
      <path class="st12" d="M326.86,510.12c-.26.71-.46,3.13-.34,3.67.38,1.73,2.19,4.71,2.38,7.04.15,1.76-.58,3.23-.56,4.55.03,1.98,1.71,8.29-.81,9.14l-71.3.12c-.98-4.35-4.54-.85-4.79,1.76-.04.47.87,5.9,1.06,6.15.17.22.85-.02.93.05.87.81,2.34,6.28,3.23,8.01,9.61,18.88,36.32,21.79,52.68,10.18,1.55-1.1,5.15-5.03,6.05-5.45.81-.38,1.17-.35,1.97.01.65.29,8.14,6.08,8.76,6.74.34.37.84.54.72,1.18-.22,1.21-7.07,7.44-8.5,8.51-25.61,19.25-66.58,11.73-79.47-18.86-13.31-31.59,3.98-71.16,40.28-73.79,23.09-1.67,40.5,9.11,47.72,30.99ZM312.87,522.1c-1.43-38.2-57.18-36.54-59.44,0h59.44Z"/>
      <path class="st12" d="M352.34,482.14l30.22,70.44,28.48-70.44h19.23l-43.87,103.74c-6.31,16.05-15.58,25.41-33.83,24.17-1.1-.08-4.89-.32-5.19-1.33l1.97-14.68c14.77,4.62,20.16-8.68,23.47-20.19-13.53-30.55-27.55-60.91-40.46-91.71h19.98Z"/>
      <path class="st3" d="M258.92,303.8c.79.1,2.26.32,3,.5.6.14,1.73.75,2.5,1,1.06.35,2.37.51,3.5,1,.53.23,1.36.42,1.5.5,1.31.71,4.81,3.81,5.99,5,7.22,7.2,10.16,18.01,7.99,27.97-.48,2.22-1.89,4.99-3,6.99-.31.56-1.18,2.03-1.5,2.5-.4.59-1.05,1.46-1.5,2-.2.24-.7.7-1,1-.49.49-1.62,1.69-2,2-.29.24-1.69,1.28-2,1.5-.82.57-2.06,1-3,1.5-.55.29-1.21.88-1.5,1-.89.39-2.05.69-3,1-.87.28-2.27.83-3,1s-2.1.34-3,.5c-.66.11-1.36.48-1.5.5-.88.11-3.18.15-4,0-.11-.02-.94-.76-2-1-.92-.2-2.15-.23-3-.5-.47-.15-1.03-.34-1.5-.5-1.02-.35-2.53-1.02-3.5-1.5-.34-.17-.97-.7-1.5-1-.85-.49-1.69-.93-2.5-1.5-.46-.33-1.19-.74-1.5-1-1.5-1.25-3.82-3.91-5-5.5-.33-.44-.66-1.01-1-1.5-.55-.8-.96-2.39-1.5-3-.14-.16-.2-.43-.5-.5-.06-.31.09-.77,0-1-.14-.38-.49-.47-.5-.5-.24-.58-.92-2.11-1-2.5-.21-1.03.51-2.8-.5-3.5.02-.5,0-1,0-1.5.04-2.1-.2-4.47,0-6.49.07-.7.35-1.72.5-2.5.11-.57.42-2.24.5-2.5.25-.77,1.1-2.11,1.5-3,.26-.57.7-1.46,1-2,.41-.73,1.29-2.71,1.5-3,.07-.1.86-.73,1.5-1.5.43-.52,1.9-1.92,2.5-2.5.74-.71.93-1.44,1-1.5.19-.15,3.56-2.25,4-2.5.21-.12.35-.42.5-.5.25-.14,3.37-1.28,4-1.5.34-.12,1.4-.34,2-.5.92-.25,2.81-.91,3.5-1,.48-.07,1.01.05,1.5,0,.87-.09,4.2-.51,4.5-.5.26,0,.72.47,1,.5ZM260.79,314.9c-7.69,1.57-4.59,14.53,3.81,14.19,9.51-.38,8.26-16.67-3.81-14.19Z"/>
      <path class="st11" d="M336.85,242.85c9.27,7.04,18.96,13.37,27.23,21.97,32.43,33.74,29.76,75.19-4.75,106.17-.92.83-6.55,5.78-7.01,5.99-.78.36-1.2.37-1.98,0-.39-.18-6.39-5.13-6.48-5.55-.19-.92,11.47-11.18,13.22-13.18,20.62-23.49,23.11-52.28,3.22-77.17-3.27-4.1-7.12-7.32-10.47-11.26-.02-.03.46-.23.06-.73-1.81-2.27-4.12-2.77-4.56-6.27.14,0,2.5-1.15,2.54-1.29.63-2.5-3.3-8.08-6.03-8.7,0,.66.05,1.36-.27,1.98-.81,1.57-3.69,1.69-2.23,3.51-1.77-1.39-3.06-2.66-4.5-4,.67-.75,3.49-3.45,3.43-4.16-.13-1.44-3.38-3.43-3.43-5.33l2-2Z"/>
      <path class="st15" d="M307.38,302.3l-.5,1.5c-.05.15.05.35,0,.5-2.03-.06-1.21,1.95-1.75,3-.44.87-1.91.69-2.15,2.32-.32,2.14.98.75,1.39,1.18.16.16-.34,4.32-.49,4.48-.51.53-3.66-1.51-3.35,2.35.18,2.29,2.88,3.72,3.33,5.42.11.42.61,4.18.57,4.4-.18.91-2.87-.23-1.92,2.93.77,2.55,2.78,2.42,3.61,3.39.69.8.1,2.77,1.76,2.49,4.75,12.6,16.05,23.29,25.98,31.97,1.22,2.95-.42,1.9-1.61,2.55-.5.27-.47.91-.66.96-1.45.37-1.21-.94-1.48-1.01-.55-.14-2.1.89-2.17,1.08-.37.94,1.2,1.41.92,2.43-.15.15-3.32-1-3.99-.49-1.02.77,2.45,1.87,2,2.74l-2,1.25c-38.4-32.75-48.12-70.82-8-108.16,1.44-1.34,11.47-9.91,12.36-10.16.66-.19,1.02-.12,1.63.17.56.26,6.88,5.58,6.98,6.03.15.68-5.95,5.01-6.98,5.95-8.53,7.77-19.4,19.83-23.47,30.73Z"/>
      <rect class="st3" x="83.59" y="482.14" width="15.49" height="98.41"/>
      <path class="st15" d="M320.37,149.93c.35-1.19,1.77-1.05,2.75-1.03,23.08.49,47.72,12.66,55.33,35.62,8.36,25.23-4.53,50.46-23.44,66.77-.69.12-8.78-6.29-8.63-7.12.09-.51,5.96-6.36,6.94-7.58,10.23-12.69,17.67-28.13,15.43-44.88-3.26-24.36-25-39.8-48.38-41.79Z"/>
      <path class="st14" d="M230.45,266.83c2.87,2.12,4.36-1.81,7.22-1.5.71.08,1.27.82,2.04.98.94.19,2.01-.17,2.89.02.35.08.22,1.51,2.03,1,.35-.1.27-1.03.56-1.03.72.02,1.18.87,2.01,1s3.61-.13,3.74,0c.17.18-.18,1.82,0,2.01s3.73-.1,5.01.23c4.07,1.05,12.32,5.6,16.93,7.55.91.39,4.78,4.48,6.03,3.21.14-.14-.11-.84,0-1.14.79-2.07,2.19,4.08,4,3.63-1.22,2.21-2,5.33-3.5,7.49.02-.16-.67-2,0-2.99-2.92.3.07,4.22-3.49,3.99-.26-1.18.39-4.7-.07-5.42-.3-.48-5.58-1.08-6.63-1.1-.56.16-1.56,5.54-1.8,6.53-.41,1.68-.62,3.34-1,5-.68,2.95-2.17,5.84-2,8.99-.77-.25-1.9-.86-2.5-1,1.8.17,1.24.12,1.57-1.15.7-2.7.81-5.83,1.42-8.34.42-1.7,1.05-3.64,1.5-5.5.29-1.19,1.77-3.64,1.42-5.15s-7.12-6.11-8.41-4.85c-.21.21.03,5.05,0,6-.04,1.33.05,2.67,0,4-.04,1.08-.48,2.1-.52,3.23-.12,3.74.13,7.52.02,11.26-.28-.03-.74-.49-1-.5v-.5c.05-2.82-.07-5.67,0-8.49.08-3.03.4-5.99.5-8.99.13-4.1.87-4.68-3.31-5.44-1.71-.31-3.11.79-2.69-1.56h-2.99c-.41.48.84,5.45,1,6.5.58,3.88,1.33,7.64,2,11.49.4,2.29.44,4.72,1,6.99v.5c-.49.05-1.02-.07-1.5,0,0-2.54-.64-5.01-1-7.49-.34-2.33-.61-4.67-1-6.99-.31-1.85-.67-3.65-1-5.5-.41-2.3-.84-4.66-1-6.99l-9.48,1.52c-.11,1.42.82,2.62.99,3.98.04.32-.03.67,0,1-.16-.02-.34,0-.5,0s-.34-.03-.5,0l-1.3-4.53c-1.7.2-3.69-.26-5.32.15-1.22.31-4.89,2.26-3.87,3.87-1.33-.26-1.63-.98-3.23-1.05-.9-.04-4.35.56-4.97,1-.68.48.51,2.17-2.29,1.55-.47,1.34.9.8,1.01,1.32.14.67-.07,1.47,0,2.17-1,.22-1.32-.96-2.23-.99-1.5-.04-4.08,2.34-4.97,3.52-1.93,2.58-3.85,5.8-5.77,8.22-.61.77-1.88,1.14-2.74,2.26-2.54,3.32-5.2,8.01-7.36,11.62-1.3,2.17-1.67,4.3-1.41,6.83-1.54.63-.76-1.29-1-1.5-.06-.05-1.44-.05-1.49,0-.5.47,1.05,2.9.9,3.67-.13.65-1.5,1.39-1.79,2.67-.6,2.61.35,6.25-.13,8.86-.28,1.5-1.91,2.26-2.02,4.02-.03.45,1.11,5.99,1.28,6.26.98,1.53,2.77-1.05,3.26-.51.49,1.42-1.21,2.02-1.43,2.85-.26,1,1.33,4.61-1.06,4.64-.24-.75-.31-1.37-.5-2l-.5-1.5c-.26-.97-.32-1.63-.5-2.5l-.5-1c-5.97-32.88,11.15-63.99,41.96-76.43Z"/>
      <path class="st4" d="M190.49,350.26c2.39-.03.8-3.63,1.06-4.64.22-.84,1.92-1.43,1.43-2.85-.49-.54-2.27,2.04-3.26.51-.17-.27-1.31-5.81-1.28-6.26.11-1.76,1.74-2.52,2.02-4.02.48-2.62-.48-6.25.13-8.86.3-1.28,1.66-2.02,1.79-2.67.16-.77-1.4-3.21-.9-3.67.05-.05,1.44-.05,1.49,0,.23.2-.55,2.13,1,1.5-.26-2.53.11-4.66,1.41-6.83,2.17-3.61,4.82-8.3,7.36-11.62.86-1.12,2.13-1.49,2.74-2.26,1.92-2.42,3.84-5.64,5.77-8.22.89-1.19,3.47-3.57,4.97-3.52.92.02,1.23,1.21,2.23.99-.06-.7.15-1.5,0-2.17-.11-.53-1.48.02-1.01-1.32,2.8.62,1.62-1.07,2.29-1.55.61-.44,4.06-1.04,4.97-1,1.6.06,1.9.79,3.23,1.05-1.02-1.61,2.65-3.56,3.87-3.87,1.63-.42,3.62.05,5.32-.15l1.3,4.53c-2.68.46-5.72,1.65-8.49,2-.21-.73-1.27-1-1.75-1.49l.75,1.99c-1.19-.12-3.81,1.2-4.75,1.99-1.41,1.18-1.52,2.58-2.24,3.51-.06.08-1.39-.26-1,1-3.05-.77-6.85,2.56-7.94,5.17.39,1.58,2.89,1.87,3.44,2.32,1.8,1.46,3.91,3.37,5.99,5,.34.27.65,1.23,1,1.5l-.5.5c-.52-.41-1.49-.6-2-1-.18-.14-.31-.36-.5-.5-.1-.08-.4.08-.5,0-.04-.03.11-.65-.35-1.01l-7.64-5.49c-.28,1.49-.94,3.77-1.72,5.03-.99,1.62-2.26,1.44-2.28,3.46l-1,.5c-.85-.18-1.8-1.33-2.98-.99-1.28,3.37-2.63,5.73-1.52,9.48-.42,0-.88.02-1,.5-1.45-.25-2.83-1.01-3.74,1.01-.49,1.09-.46,7.43.31,7.91,1.45.27,2.97-.08,4.42.07,2.69.27,5.67.75,8.49,1-.01.33,0,.67,0,1-1.79-.2-3.69-.34-5.49-.5-1.09-.1-6.09-.75-6.44-.45-.62,3.61-3.41,5.92-1.5,9.9,1.96-.37,3.98-.29,5.95-.46v1c-1.4.17-2.86.17-4.24.51-.44.11-1.12-.21-.75.73s4.61,6.09,5.5,6.5c1.02.47,3.25-.01,4.48-.25v.5c-.09.03-.41.63-1.5,1-1.47.5-2.9,1.06-4.5,1,.96,2.32-.8,5.15.26,7.48.17.37,3.26,3.37,3.56,3.42,1.02.2,4.11-2.29,5.17-2.92,2.04-1.19,4.12-2.44,6.24-3.5.58,1.46-2.2,2.83-3.24,3.5-.88.57-6.45,3.26-6.53,3.79.63,2.58,3.05,6.1,6.03,5.7-.54,1.75.94,1.4,1,1.5,1.16,2.06-.11,1.26,2.54,3.72,1.17,1.09.76,2.81,3.24,1.3,1.32-.8,1.76-2.55,2.22-3.02,1.44-1.48,3.6-3.01,5-4.5-.16.16-.28,1.95.74,1.49l1.25-1.75c-.36.05-1.92.18-1.99.25.18-.19.42-1.38,1-2,1.65-1.77,2.76-2.26,4.5-3.5-.01.33-.18,1.02.25,1,.71-.59,1.15-1.02,1.25-2,1.35-.88,2.21-1.1,3-3,.31.26,1.04.67,1.5,1-1.13-.05-1.33.7-1.91,1.34-3.48,3.92-6.94,7.56-10.08,11.65-.68.88-4.48,5.31-4,5.99,2.11.33,3.79.99,5.47,2.3.48.38.61,2.13,1.56.9.3-.4.58-1.68.96-2.35.27-.46.98-.3,1-.34h.5c-.31.64-1.36,3.64-1,3.99,3.08-1.08,4.94,1.31,7.99,1-.29.9-1.13,6.35-1.79,6.53-2.29-.69-5.22-.18-7.34-.64-2.6-.57-2.05-3.09-2.36-3.39-.19-.18-3.58.74-5.22.47s-2.51-1.51-3.82-2.19c-.7-.36-1.8-.19-1.95-.28.81.61-2.27,2.91-3.49,2-.82-.61,2.28-2.91,3.49-2-.05-.03.22-.85-.34-1-1.03-.27-2.68.3-3.66-.75-.7-.74-.44-1.92-.87-2.64-.53-.89-1.63-.98-1.64-2.1-.8-.32-.77.14-1.01.29-1,.64-.62,2.49-1.98,2.19-.25-1.29,1.07-5.27-.86-5.5-.91-.11-1.99.69-2.64.3-1.05-.63-1.79-4.63-2-4.78-.51-.37-2.48,1.37-2.98,1-.17-.13-1.77-3.74-1.8-3.96-.14-.89.38-1.61.31-2.21-.04-.38-.98-.11-1.07-1.05-.16-1.66,1.39-3.54.99-4.21-.25-.43-4-2.56-4.62-3.02-.71-.52.41-2.16-2.31-1.54-.09-.26-.36-.58-.5-1ZM220.46,290.31c.51-.5-.98-2.01-1.49-1.49s.98,2.01,1.49,1.49ZM231.93,361.73c.1-.16.19-1.03-.23-.98-.6.65-1.45,1.04-1.25,1.99.28-.33,1.43-.94,1.47-1.02ZM227.71,365.75l-.74.74c0,.52,1.25-.3.74-.74ZM213.22,366.24v.5c.32-.17.32-.33,0-.5ZM226.21,367.24v.5c.32-.17.32-.33,0-.5Z"/>
      <path class="st4" d="M233.45,358.25c.05-1.16.1-2.13,1.5-2-.01.33.04.67,0,1-.5.33-1.01.65-1.5,1Z"/>
      <path class="st14" d="M190.99,351.26c2.72-.62,1.6,1.01,2.31,1.54.63.46,4.37,2.59,4.62,3.02.39.67-1.15,2.55-.99,4.21.09.94,1.03.66,1.07,1.05.07.6-.45,1.32-.31,2.21.04.23,1.63,3.83,1.8,3.96.5.38,2.47-1.37,2.98-1,.21.15.96,4.15,2,4.78.65.4,1.74-.41,2.64-.3,1.93.24.61,4.22.86,5.5,1.36.3.98-1.55,1.98-2.19.23-.15.21-.61,1.01-.29,0,1.12,1.11,1.21,1.64,2.1.42.71.17,1.9.87,2.64.99,1.05,2.63.47,3.66.75.56.15.3.97.34,1-1.22-.91-4.31,1.38-3.49,2,1.22.92,4.3-1.39,3.49-2,.15.09,1.25-.09,1.95.28,1.31.68,2.22,1.93,3.82,2.19s5.03-.66,5.22-.47c.31.3-.24,2.83,2.36,3.39,2.12.46,5.05-.04,7.34.64.67-.18,1.5-5.63,1.79-6.53.65-2,1.35-3.97,2-5.99,1.54-4.83,3.21-9.74,5-14.49.47.16,1.03.35,1.5.5-1.05.3-.9,1.3-1.16,2.09-1.22,3.75-2.14,7.74-3.34,11.4-.8,2.45-1.7,4.97-2.5,7.49-.47,1.49-2.38,3.94-2.04,5.68.32,1.61,8.24.26,9.32-.64,1.27-1.05.5-3.13.71-4.53.37-2.52.69-4.96,1-7.49.43-3.59,1.18-7.24,1.46-10.82.07-.96.12-1.84-.46-2.67,1.06.24,1.89.98,2,1-.39,3.36-1.39,6.55-1,9.99-.47,1.59-.25,2.25-.5,3.5-.37,1.86-.78,3.59-1,5.5-.21,1.8-.83,3.58-.45,5.44,2.91.33,5.49,1.89,8.41,1.02.02-1.64.1-3.33.03-4.97-.1-2.43-.84-5.59-1-7.99-.12-1.81.09-3.68,0-5.5-.12-2.35-.33-4.65-.5-6.99.14-.02.84-.39,1.5-.5-.34,3.53.37,7,.5,10.49s.13,6.97.5,10.49c.14,1.29-.1,2.69,0,4,.68.67,7.48-2.89,7.89-3.59.62-1.07-.22-2.45-.4-3.4-.29-1.52-1.02-5.65-2-6.49-.07-3.67-1.37-7.14-2.01-10.75-.24-1.34.52-1.37-1.49-1.24.73-.17,2.12-.72,3-1-1.3,2.07.91,4.23,1,6.49-.16,2.24,1.03,5.63,1.5,7.99.4,2.03,1.03,4,1.5,5.99,1.04,4.39-.58,7.45,5.52,6.26,3.58-.7,5.6-1.92,3.97-5.76,1.72-.31.81,2.05,1.99,2.78,1.73,1.07,5.61-4.35,7.55-5.01.8-.5-.24-2.06-.06-2.26,1.25-.11,1.7,1.61,3,.77.25-.16,3.56-4.39,3.72-4.79.32-.82.33-1.62.27-2.48,2.87,1.5,1.61-1.49,4.2-1.54.12.02,1.22,1.8,1.29,2.03.13.47-.17,1.84,0,1.99.13.11,2.23.11,2.99,1.02-1,.61-.89,2.87-1,2.99-.19.22-2.23-1.03-3.49-.26-.63.39-2.57,4.06-3.13,5.09-1.84.62-8.78,6.08-9.35,7.41-.39.91,2.17.89,1,1.74-.18.13-1.15-.17-1.63.01s-.36.89-.72.97c-1.26.31-3.11-.3-4.3,0-.49.13-.57,1.12-1.14,1.45-1.15.64-3.33.94-4.19,1.83-.58.6-.59,1.59-1.24,2.26-1.98,2-14.54,2-17.76,1.98-.12.87,1.14.47,1.74.49,1.25.05,2.51-.01,3.75,0v.5c-2.15,0-4.35.08-6.49,0-1.52-1.1-4.1-.25-5.99-.5-27.4-2.97-49.52-21.82-58.44-47.46Z"/>
      <path class="st12" d="M232.45,406.71c4.9.28,10.73,2.17,15.82,2.91,10.88,1.59,21.92,2.11,32.88,1.08,4-.38,8.05-1.2,11.99-2,.47-.02.28.73.16,1.16-.72,2.63-2.6,5.99-3.53,8.96-.5,1.59-1.57,8.44-2.69,8.8-1.68.54-7.27.88-9.42,1.07-14,1.2-30.08.11-43.71-3.24-1.16-.29-5.53-1.12-5.99-1.76-.56-.77.89-.44-1.23-1.02-1.78-.48-.16-.97.33-2.13.55-1.32.68-2.63,1.15-3.84.7-1.81,2.45-2.94,1.74-5.5l-2.99.5c-.33-.77.46-1.26.5-1.5,2.54-1.62,3.6,1.99,6.49,1,.83-.72-3.66-4.29-4.99-3.49.06-.05-.25-.95.3-1.04.77-.13,1.69.48,2.47.48.4,0,.67-.44.73-.43Z"/>
      <path class="st11" d="M306.38,235.36c-12.27-10.82-24.14-23.58-27.25-40.44-2.88-15.61,3.5-31.51,16.8-40.2.76-.5,4.19-2.61,4.73-2.77.91-.27.98.67.72.97-.07.08-1.14.27-1.77.98-12.66,14.34-12.05,33.85-2.81,49.82,6.21,10.73,15.23,18.92,24.79,26.66.77.63,2.34,1.41,2.27,2.48-.14,0-1.05.95-1.91.41-.18-.11-1.83-2.09-2.85-2.91-.48-.39-.59-1.38-1.08-1.51-1-.25-2.54.18-3.64.01-.29,1.74,1.53.53,2.55,1.71.51.6.35,1.15.45,1.79,3.47-.02,3.64.14,3.99,3.99-1.2.42-1.53-1.59-2.14-1.85-.65-.28-1.74-.06-1.85-.16-.14-.12.07-1.5,0-1.99-.61,0-2.9-.11-3,0-.13.15.14,1.15,0,1.64-.16.59-.86.15-1.01.61-.47,1.41,2.56.33,3.51.98,2.35,1.62-1.41,2.19-3.17,1.75-.39-.1-.3-.97-.66-1.01-.59-.07-1.32.47-2.22.31-.97-.17-2.99-4.11-4.45-1.29Z"/>
      <path class="st9" d="M380.31,354.25l7.74-15.98c.69.32,1.72,3.02,1.75,3.8.06,1.42-2.04,2.64-1.49,3.18.51.5,1.54-1.23,2.64-.95,1.5.39,1.25,1.81.85,2.95,2.46-3.62,3.47-.18,4.89.48,2.73,1.27,2.71-.13,6.34,2.52,2.09,1.52,3.71,1.13,2.63,5.12-.45,1.66-3.95,5.15-4.27,6.21-.42,1.41.05,3.56-.22,5.27-.09.57-1.64,5.32-1.82,5.57-.35.48-1.99.29-2.92.68-4.05,1.66-2.55,3-3.36,6.13-.11.41-2.78,5.75-3,5.99-1.11,1.21-2.08-.25-3.25-.27,3.58,4.96-.24,3.67-1.38,4.89-.23.24-.15.94-.43,1.31-.34.45-1.19.5-1.21.85-.03.39.56,1.17.51,1.93-.05.9-1.06,1.78-.93,2.45.12.57,1.18,1,1.36,1.67.24.91-.78,2.26-.34,3.79s2.91,1.62,2.9,3.35c-3.85.81-8.6-5.8-9.25-8.99-.56-2.74-.59-2.83-1.48-5.5-1.36-4.09-1.62-13.1-2.25-17.98.46-2.36,2.92-1.26,3.96-2.79.36-.53,1.24-3.71,1.42-4.57.39-1.83-.76-3.61,1.62-3.13.24-1-1.02-1.37-1.02-2.25s3.2-3.51,2.01-5.74c-.84.64-1.84,0-1.99,0Z"/>
      <path class="st15" d="M318.87,466.15c-.38.35-7.93-3.61-8.95-4.28-32.53-21.23-13.1-56.45,10.2-75.15.72-.58,4.56-3.52,5-3.52.79,0,7.91,5.81,7.72,6.71-.12.56-7.56,6.2-8.73,7.28-20.4,18.83-33.64,47.48-6.39,67.37.33.24,1.81.97,1.16,1.58Z"/>
      <path class="st1" d="M156.52,373.24c6.43,2.79,14.04,8.05,20.61,11.5,4.84,2.54,10.84,5.97,15.48,8.13,1.14.53,2.4.64,3.38,1.35-.06,0-.33.58-1.08.41s-4.54-2.27-4.91-1.91c1.16,2.73-.07,2.1-.49,2.85-1.64,2.89-3.27,6.85-2.5,10.13-4.52.37,2.17,2.15,3.18,2.97.51.41.27,1,.32,1.03-15.02-6.55-28.97-15.26-42.46-24.48,2.37.2-.98-1.67-1.27-1.98-3-3.27,3.33.92,3.27-1.76l-3-2.24c1.02-.64,7.21-4.1,7.48-4.52.62-.97-.43-1.08-1.27-1.02-.98.07-.63,1.54-2.21,1.03,1.02-5.46,2.31-1.77,4.84-1.07.79.22.61-.44.65-.43ZM184.99,404.71c-.69-.15-1.33.27-1.5.99h1.5s0-.99,0-.99Z"/>
      <path class="st12" d="M343.34,376.73c.16.04.36-.05.5,0,.2,2.08.91.96,1,1,4.28,1.71,16.48,13.71,19.97,17.75,5.43,6.29,8.81,11.9,11.5,19.72.32,2.1-.36,1.15-1.17,1.56-.96.48-2.39,1.48-3.09.45-.54-.81.43-2.37-1.23-2,.45,2.58-1.04,5.93-3.5,6.99-4.93-14.39-20.27-26.06-31.47-35.47,1.5.3.83-1.3,1.72-2.04.5-.41,1.42-.21,1.79-.81,1.72-2.77-1.89-8.6,3.98-7.14ZM370.82,413.2c-.87-.87-2.55.8-.74,1.49,1.06.4.89-1.34.74-1.49Z"/>
      <path class="st15" d="M250.93,261.84c6.14-.44,10.37-.51,16.48,0,3.21.27,6.44.46,9.6,1.14,5.4,1.17,10.8,3.77,15.88,5.86.57.75-4.22,5.41-4.91,6.32-1.59,2.11-3.93,5.56-5.08,7.66-1.81.45-3.21-5.7-4-3.63-.11.29.14,1,0,1.14-1.25,1.27-5.12-2.82-6.03-3.21-4.61-1.94-12.86-6.5-16.93-7.55-1.29-.33-4.84-.05-5.01-.23s.18-1.82,0-2.01c-.13-.14-2.93.12-3.74,0s-1.29-.98-2.01-1c-.29,0-.2.93-.56,1.03-1.81.51-1.68-.92-2.03-1-.89-.19-1.95.16-2.89-.02-.78-.15-1.34-.9-2.04-.98-2.86-.31-4.35,3.61-7.22,1.5,7.71-3.11,12.44-4.42,20.48-5Z"/>
      <path class="st12" d="M83.27,464.98c-4.74-4.71-4.3-14.22,1.47-17.9,9.58-6.1,21.43,2.71,17.57,13.57-2.72,7.66-13.37,9.97-19.04,4.33Z"/>
      <path class="st14" d="M216.96,402.21c5.07.86,10.28,3.61,15.49,4.5-.05,0-.33.43-.73.43-.78,0-1.7-.61-2.47-.48-.55.1-.23.99-.3,1.04-.32.25-1.22.28-1.41.58-.32.52,0,1.36-.09,1.91-.04.23-.83.73-.5,1.5l2.99-.5c.71,2.55-1.05,3.68-1.74,5.5-.47,1.21-.6,2.53-1.15,3.84-.49,1.16-2.12,1.65-.33,2.13,2.13.58.68.25,1.23,1.02-7.93-1.19-15.16-4.59-22.48-7.49,1.7.11,1.07-.34.11-.85-.91-.48-2.76-.27-2.6-2.14,2.63.69,2.38-1.89,3.56-3.68.52-.79,1.51-.96,2.05-1.95.43-.79.77-3.69.92-3.82.81-.67,3.13,1.32,2.45-2.05,1.35-.12,2.66.77,3.91.91.73.08,1.03-.42,1.09-.41Z"/>
      <path class="st15" d="M195.98,394.22c4.03.57,14.5,5.61,18.38,7.45.78.37,1.75.44,2.6.54-.06,0-.36.49-1.09.41-1.25-.14-2.55-1.03-3.91-.91.67,3.37-1.64,1.38-2.45,2.05-.15.13-.49,3.03-.92,3.82-.54.99-1.53,1.16-2.05,1.95-1.18,1.78-.94,4.37-3.56,3.68-.16,1.87,1.69,1.66,2.6,2.14.97.51,1.6.96-.11.85-4.91-1.95-10.65-3.42-14.99-6.49-.04-.03.2-.62-.32-1.03-1.01-.81-7.7-2.59-3.18-2.97-.77-3.28.87-7.24,2.5-10.13.43-.75,1.65-.12.49-2.85.37-.36,4.18,1.75,4.91,1.91s1.03-.42,1.08-.41Z"/>
      <path class="st0" d="M317.37,232.36c-.09-.64.07-1.19-.45-1.79-1.02-1.18-2.84.03-2.55-1.71,1.11.16,2.65-.26,3.64-.01.5.12.6,1.12,1.08,1.51,1.02.82,2.67,2.8,2.85,2.91.86.53,1.77-.42,1.91-.41,1.49.06,10.81,7.67,12.81,9.18.24.18.13.77.18.81l-2,2c-.33-.19-1.32-.67-1.49-.5-.25.25-2,6.42-1.98,6.77.08,1.69,2.65,2.46,3.47,3.22,1.43,1.33,2.73,2.61,4.5,4,1.14.89,4.9,4.56,5.99,4.5.44,3.5,2.75,4,4.56,6.27.4.5-.08.7-.06.73l-40.57-31.5c-.94-.83-2.02-2.2-2.89-2.97,1.46-2.81,3.48,1.13,4.45,1.29.91.15,1.63-.38,2.22-.31.35.04.27.92.66,1.01,1.76.44,5.52-.14,3.17-1.75-.95-.66-3.98.43-3.51-.98.15-.47.85-.02,1.01-.61.13-.48-.14-1.49,0-1.64.1-.11,2.38,0,3,0,.07.5-.13,1.88,0,1.99.12.1,1.2-.12,1.85.16.6.26.94,2.27,2.14,1.85-.36-3.86-.53-4.01-3.99-3.99Z"/>
      <path class="st9" d="M394.8,222.37c3.77-.35,6.05-1.59,10.21-.47.9.24,3.93,1.53,4.27,2.23.71,1.45-2.64.09-2.49,1.24,1.41-.38,2.69.93,3.77.99.86.05,4.02-1.03,4.7.05,1.1,1.76-1.32,1.37-2.34,1.84-.47.22-2.04,1.52-2.05,1.87,0,.45,3.45,3.67-.09,3.26,2.17,2.74.19,4.75-2.99,3.49l3.01,2.84c.58,1.37-2.44,3.61-3.49,3.94-1.34.42-2.91-.08-4.03.46-.82.39-1.15,2.1-1.99,2.51-1.07.52-3.1,0-4.01.98-.71.76-2,6.38-2.49,7.76-.65.44-5.3-2.44-5.6-3.64-.36-3.22-5.05-7.48-.39-9.35.56,1.31,2.26,2.97,2.8,4.53.96.21,6.01-2.78,7.64-3.12.18-.3-.36-5.35-.3-6.09.07-.83,1.03-2.4,1.22-3.69.29-1.96.27-4.88-1.01-6.49-.22-.28-.79-.06-.86-.13-.11-.1-.49-.47-.5-.5-.16-.39.2-1.34-.47-1.77-1.33-.85-2.05.89-2.52-2.72Z"/>
      <path class="st0" d="M367.32,422.19c2.46-1.06,3.95-4.42,3.5-6.99,1.66-.37.69,1.19,1.23,2,.69,1.03,2.12.03,3.09-.45.81-.4,1.5.55,1.17-1.56,5.66,16.42.4,38-15.01,47.68-.61.38-1.81,1.23-2.47.53,8.08-8.34,11.47-19.96,10.48-31.47-.19-2.17-1.3-7.72-1.99-9.75Z"/>
      <path class="st6" d="M394.8,222.37c.47,3.61,1.19,1.88,2.52,2.72.67.43.31,1.39.47,1.77-.77.21-1.91-.69-2.01.74-.4,5.57,3.1,4.85,2.51-.24.07.06.64-.15.86.13,1.28,1.61,1.3,4.52,1.01,6.49-.19,1.29-1.14,2.86-1.22,3.69-.06.74.48,5.79.3,6.09-1.63.34-6.68,3.33-7.64,3.12-.54-1.57-2.24-3.22-2.8-4.53-.14-.32.14-1.33,0-1.5-.18-.21-3.83,2.01-4.78-.98-1.01-3.17,3.15-4.96.81-7.28-2.49-2.46-4.07.36-6.19-.29-1.49-.46.31-3.88.92-4.45.72-.67,1.77-.29,2.15-.59.41-.33.27-1.84,2.57-3.17,3.93-2.28,6.4-1.34,10.52-1.72Z"/>
      <path class="st4" d="M286.4,360.25c2.53,2.47,4.2,2.29,5.8,3.46.67.49.54,2.38,1.69,1.29l.5-2.75c2.19,2.73,5.38,4.86,6.99,7.99-.34-.13-.66-.35-1-.5-.06-.23-1.17-2.01-1.29-2.03-2.59.05-1.33,3.04-4.2,1.54.06.86.05,1.65-.27,2.48-.16.4-3.47,4.62-3.72,4.79-1.3.84-1.75-.88-3-.77-.19.2.86,1.75.06,2.26-1.94.66-5.83,6.08-7.55,5.01-1.18-.73-.27-3.08-1.99-2.78,1.63,3.85-.39,5.07-3.97,5.76-6.1,1.18-4.48-1.88-5.52-6.26,1.68-.1,1.24-1.51,1.86-1.99,1.25-.98,3.73-.83,5.14-1.5.25.51,1.39,2.88,1.51,3,1.93,1.89.11-2.18,0-2.5,3.18.56,3.84-3.13,7.03-3.8.37-1.69-2.57-4.34-3.53-5.69-1.03-1.44-1.95-3.08-3-4.5l.5-.5c.14.2.85.31,1,.5,1.19,1.57,2.25,3.95,3.78,5.46.41.41.43.72,1.21.54.06-1.63,2.51-3.95,4-4.51l-2.5-3.49.5-.5Z"/>
      <path class="st15" d="M301.38,370.24c2.72,1.06,5.83,5.35,8.4,7.24,0,.95-4.84,5.14-5.89,6.01-9.4,7.71-23.76,14.42-35.97,15.23-1.91.13-4.05.02-5.99,0-1.24-.01-2.5.05-3.75,0-.61-.03-1.86.38-1.74-.49,3.22.02,15.78.02,17.76-1.98.65-.66.66-1.66,1.24-2.26.86-.88,3.04-1.18,4.19-1.83.57-.32.65-1.32,1.14-1.45,1.19-.31,3.04.3,4.3,0,.36-.09.26-.8.72-.97.48-.19,1.45.11,1.63-.01,1.17-.85-1.39-.83-1-1.74.58-1.33,7.52-6.8,9.35-7.41.56-1.03,2.5-4.7,3.13-5.09,1.26-.78,3.3.48,3.49.26.11-.12,0-2.38,1-2.99-.76-.9-2.86-.91-2.99-1.02-.18-.15.13-1.52,0-1.99.34.15.66.37,1,.5Z"/>
      <path class="st11" d="M327.86,198.89c.07,0,.56-.48,1.21-.52,2.03-.12,6.42.46,7.95-.06.77-.26,1.76-2.64,3.14-3.35,1.81-.92,4.89-.84,6.64.22.96.58,2.39,3.21,2.78,3.21h14.74v3.5h-14.74c-.46,0-1.45,4.58-6.5,4.54-4.64-.04-5.59-4.45-6.08-4.56-1.92-.46-7.68.04-10.16.02l1.5-.99-1.5-.26,1.75-.74-.75-1Z"/>
      <path class="st0" d="M309.88,313.79c.52-.83,1.9-.5,2.74-.51,8.29-.09,16.59.08,24.88.02,2.68-5.5,9.7-5.91,12.17.01l18.67.21c1.66.19.82,1.96.97,3.26h-19.23c-.4,0-2.48,4.75-6.03,4.98-2.09.13-6.64-2.95-6.71-4.98-.02-.49.93-2.05.5-3-3.66-.01-7.33.02-10.99,0-5.65-.03-11.33.02-16.98,0Z"/>
      <path class="st6" d="M377.82,254.84c1.52-1.19,2.86,5.32,3.26,5.97,1.01,1.63,3.59,2.14,3.71,4.29.07,1.2-.9,2.51-.41,3.89.33.93,3.51,2.11,2.42,4.83l-5-1,1.5-5.49c-.15-.19-2.68,1.81-3.36,1.92-1.88.33-3.88-1.77-4.87,1.07-.84-1.49-6.46-6.42-6.69-7.34-.3-1.18,1.21-1.96,1.36-2.99.13-.89-.51-1.83-.42-2.86.12-1.32,1.64-2.96,1-4.79,1.62-.22,3.81.02,4.39,1.86.25.8-.16,2.81.87,3.13,1.91.59,2.04-2.33,2.25-2.49Z"/>
      <path class="st1" d="M328.36,181.91c-.68.13-1.91-.25-2.42.08-.21.14-.4,1.37-.85,1.89-2.02,2.38-3.65,3.07-6.86,2.41-2.8-.58-4.24-4.38-4.61-4.38h-18.23v-3h18.23c.37,0,1.81-3.8,4.61-4.38,3.02-.62,5.39.07,7.07,2.7.41.64.49,2.02.61,2.12.24.21,3.59.05,4.44.06.5,0,1,0,1.5,0-.46.06-1.53.93-2.5.5-.51,2.04,2.27.16,2.5,1.49-1.38-.43-2.63.34-3.49.5Z"/>
      <path class="st14" d="M343.84,433.68l.5.5c.2.08.68-.03,1,0l.25.49.25-.49c.66.04,1.33-.02,2,0,1.14,1.28,4.85-.03,5.99.5v.49s-7.99,0-7.99,0c.07,2.67,3.41.35,5.24,1.01l3.75.99c-2.76.51-8.3-.7-10.67.07-1.16.38-.61,1.49-.82,1.93-1.24,2.69-1.5,1.57-3.35,2.13-.12.04-.14.76-.49.85-3.35.85-6.5-1.45-7.49-4.5-7.29-.57-15.81.81-22.94.05-.69-.07-.71-.04-1.2-.53h15.98s-1-2-1-2l1.99-.5h-16.98s0,2.49,0,2.49c-1.01-1.02-.74-2.88.75-3l22.9-.08c2.55-3.47,5.73-6.06,9.99-3.33,1.59,1.02,1.49,1.93,2.33,2.91Z"/>
      <path class="st1" d="M349.84,218.38c.07.48-.53,1.26-.53,1.72,0,.54,1.3-.06,1.02.77-.33.02-.84.25-.99.51-.27.46-.2,1.25-.77,1.97-3.56,4.49-9.36,3.06-11.53-1.9-5.45-.83-13.27.9-18.41-.08-1.06-.2-2.78-1.82-2.76-2.99h21.23c.32,0,1.44-2.54,2.27-3.23,1.9-1.57,5.31-1.83,7.45-.5.66.41,2.95,3.23,3.02,3.72Z"/>
      <path class="st14" d="M333.85,368.24c3.19,2.79,6.88,5.1,9.49,8.49-5.88-1.46-2.26,4.37-3.98,7.14-.37.6-1.3.39-1.79.81-.89.74-.22,2.34-1.72,2.04-3.62-3.04-7.38-5.91-10.99-8.99l2-1.25c.45-.87-3.02-1.97-2-2.74.67-.51,3.84.64,3.99.49.28-1.01-1.29-1.49-.92-2.43.07-.18,1.63-1.22,2.17-1.08.27.07.03,1.38,1.48,1.01.19-.05.16-.68.66-.96,1.19-.64,2.83.4,1.61-2.55Z"/>
      <path class="st1" d="M332.85,292.81c.12.48-.15,1.86,0,2,.21.21,4.15-.16,5,0l-3.49.99h-1l-.25-.49c-.34.08-.19.39-.25.49-1.97,3.3-2.08,4.85-6.76,4.52-4.39-.31-3.53-2.96-4.84-3.91-.69-.5-4.9-.48-4.89-.87.62-3.37,3.17-2.2,4.51-2.98.54-.32.92-2,1.73-2.77,3.27-3.12,9.21-1.1,10.25,3.01Z"/>
      <path class="st12" d="M338.35,332.77c.64-2.82,3.59-3.81,6.25-3.51,2.07.23,2.93,1.37,4.25,2.77.78.83-.25.95,1.48,1.74.6.28,1.85.53,1.92.6.25.25-.04,1.15.12,1.32.46.49,2.84-.59,2.95.57-3.85.84-10.92-2.97-7.99,3.5-3.66,2.8-6.84,1.78-8.99-2,.65.03.77-.95.25-1l-.25.5c-.2-.08-3.72-.39-4.25-.4-1.61-.01-4.17,1.24-5.74-.1.08,0,.56-.48,1.21-.52,2.72-.18,5.53.2,8.25-.01-.28-1.19.7-2.03.9-2.82.08-.33-.38-.61-.37-.64ZM339.85,334.78c-2.08-.25-2.08.74,0,.49v-.49Z"/>
      <path class="st0" d="M326.86,510.12c.05.15.6.48.75.98,2.42,7.92,2.37,16.28,2.25,24.5h-76.93l.5,6.99c-.08-.07-.76.17-.93-.05-.19-.25-1.11-5.68-1.06-6.15.25-2.61,3.81-6.12,4.79-1.76l71.3-.12c2.53-.85.85-7.15.81-9.14-.02-1.32.7-2.79.56-4.55-.19-2.33-1.99-5.31-2.38-7.04-.12-.54.08-2.96.34-3.67Z"/>
      <path class="st5" d="M337.85,356.75c1.97.18,1.39,1.01,2.23,1.05,1.96.1,5.83-1.82,2.53-2.05-1.24-.09-2.52.07-3.76,0-.02-.33.02-.67,0-1,.67-.01,1.34.02,2,0,.79-.85-.25-2.83-2-2,.01.66-.04,1.34,0,2-1.83.03-3.67-.02-5.49,0-.2-2.2,3.11-.08,4.49-1.5.82-.83,1.26-2.53,2.75-3.5,3.82-2.49,9.13.33,9.29,4.74.26,7.52-9.78,9.47-12.03,2.25Z"/>
      <path class="st15" d="M329.86,411.7c2.97-2.81,6.18-3.12,9,.24,1.81,2.15-.26,2.13,3.49,2.25l-.5,2c.75-.4,1.9.49,2,.5l-.5.5c-4.74.21-2.61,1.07-5.49,3.26-2.21,1.68-5.19,1.86-7.5.24-.24-1.52.96-2.19.99-2.33,1.01-4.54-1.55-2.77-1.99-3.17l.5-3.49Z"/>
      <path class="st4" d="M267.42,291.31c.24-.99,1.24-6.37,1.8-6.53,1.04.03,6.32.62,6.63,1.1.46.72-.19,4.25.07,5.42,3.56.23.57-3.69,3.49-3.99-.67.99.02,2.84,0,2.99-.1.95-.45,1.25-.5,1.5.12-2.53-2.03.87-.5,2-.52,2.18-1.31,4.37-2,6.49,0-.07-.5-.48-.52-1.21-.04-.99,1.37-3.9-.97-3.79l-5.5,11.49c-.14-.08-.97-.27-1.5-.5,1.89-2.77,3.31-5.95,4.5-8.99.1-.26.79-.62.93-1.33.41-2.14-.75-1.6-1.46-2.53-.28-.37-.23-1.17-.58-1.51-.76-.76-2.83-.63-3.89-.62Z"/>
      <path class="st6" d="M380.31,354.25c.16,0,1.15.64,1.99,0,1.18,2.23-2.01,4.84-2.01,5.74s1.26,1.25,1.02,2.25c-2.38-.48-1.23,1.3-1.62,3.13-.19.86-1.06,4.04-1.42,4.57-1.04,1.53-3.49.42-3.96,2.79-.31-2.38.32-7.14-2.49-7.5v-.73c2.39-2.49,4.31-5.37,6.4-8.09.94-1.23.59-2.1,2.09-2.16Z"/>
      <path class="st6" d="M378.86,243.8c.57.69,5.64.17,1.19,4.54l-2.24-1.49c-.79.94,2.49,3.2,1.44,4.44-.11.13-2.9,1.1-3.12,1.08-.32-.02-3.03-4.05-5.31-3.03-.1-1.54,1.75-1.44,2.78-2.46,2.34-2.34.91-5.57-2.28-5.53-.31-.33,2.15-3.59,2.49-3.78.65-.36,4.19,2.44,4.54,2.99.79,1.22.24,2.91.52,3.23Z"/>
      <path class="st1" d="M306.88,304.3c-3.19,10.29-2.81,21.87,1,31.97-1.66.28-1.07-1.69-1.76-2.49-.83-.97-2.84-.84-3.61-3.39-.95-3.16,1.73-2.02,1.92-2.93.04-.22-.46-3.98-.57-4.4-.44-1.7-3.14-3.13-3.33-5.42-.31-3.86,2.84-1.83,3.35-2.35.16-.16.65-4.32.49-4.48-.41-.43-1.71.96-1.39-1.18.24-1.62,1.71-1.45,2.15-2.32.54-1.06-.28-3.06,1.75-3Z"/>
      <path class="st1" d="M329.86,411.7l-.5,3.49c.43.39,3-1.38,1.99,3.17-.03.14-1.22.81-.99,2.33-1-.7-2.5-3.5-2.75-3.5h-13.74c-.18-.71.8-2.86,1.35-3,2.79-.75,8.73.62,11.89.01.78-.15,1.96-1.76,2.74-2.5Z"/>
      <path class="st13" d="M269.41,306.8l5.5-11.49c2.34-.11.93,2.8.97,3.79.03.73.53,1.14.52,1.21-.13,3.8-1.66,7.69-1,11.49-1.18-1.18-4.69-4.29-5.99-5Z"/>
      <path class="st8" d="M347.84,434.18c5.65.17,11.34-.12,16.99,0v3.5c-.72.72-17.33-.41-20.26-.04-1.07.13-.67.91-1.22,1.54.21-.44-.34-1.55.82-1.93,2.37-.78,7.9.43,10.67-.07l-3.75-.99c-1.83-.66-5.17,1.66-5.24-1.01h7.99v-.49c-1.14-.54-4.85.78-5.99-.5Z"/>
      <path class="st0" d="M350.34,333.77h15.48c.12.11-.44,2.84-.55,2.94-.33.28-6.46-.02-7.71.04s-2.56.46-3.96.55c-1.17.08-3.01-.45-3.55-.37-.19.03-1.83,2.16-2.71,2.83-2.93-6.47,4.14-2.66,7.99-3.5-.11-1.16-2.5-.08-2.95-.57-.16-.17.13-1.08-.12-1.32-.07-.07-1.32-.33-1.92-.6Z"/>
      <path class="st13" d="M294.39,362.25l-.5,2.75c-1.15,1.09-1.02-.8-1.69-1.29-1.6-1.16-3.27-.98-5.8-3.46-.65-.63-1.39-2.4-1.5-2.5-.38-1.75,1.09-.46,2.05-1.32.44-.39,1.01-1.97.95-2.68.11.08.39-.08.5,0,1.63,1.13,4.37,6.47,5.99,8.49Z"/>
      <path class="st9" d="M475.22,358.75c.04,3.05-2.26,7.14-3.8,9.93-.68,1.23-3.9,7.38-5.43,7.05-2.29-2.68,1.57-5.58,2.61-7.87.52-1.14.58-2.99,1.09-3.79.31-.49,2.81-2.06,4.3-4.33.38-.58-.12-1.29,1.23-.99Z"/>
      <path class="st2" d="M477.22,328.78l-3.02-5.72c-1.44-6.39-3.51-12.52-5.47-18.75,1.1-1.38,4.5,7.33,4.74,7.99,1.58,4.24,2.79,8.68,3.24,13.26.09.86-.5,1.9,1,1.73-.05.06-.46,1.32-.5,1.5Z"/>
      <path class="st0" d="M341.85,178.91c4.44,0,12.86-.71,16.74,0,1.4.26,1.8,1.77,1.75,3-5.65,0-11.33,0-16.98,0l3.99-.5c-.33-1.39-3.52.62-2.99-1.49l3.99-.5-6.49-.5Z"/>
      <path class="st1" d="M326.86,313.79c-.8.18-1.44,1.58-1,2,.28.27,2.11-.55,2,.5h-18.48c-.17-.51-.17-2.45.5-2.49,5.65.02,11.33-.03,16.98,0Z"/>
      <path class="st9" d="M430.12,258.01c.08.03.81,1.03,1.12,1.2-1.13,3.19,5.6,6.51,4.28,9.12-.86,1.71-4.04.32-5.75,1l1-1.75c-2.38-.59.14-2.34-.07-3.42-.27-1.36-2.96-2.38-2.43-6.04.21-.61,1.39-.3,1.87-.11Z"/>
      <path class="st15" d="M326.86,313.79c3.66.02,7.33-.01,10.99,0,.43.95-.52,2.5-.5,3h-1c-.79-.84-3.23-.83-4,0-6.45,0-15.69.77-21.76.02-.55-.07-.97.21-1.22-.52h18.48c.11-1.05-1.72-.23-2-.5-.44-.42.2-1.82,1-2Z"/>
      <path class="st1" d="M327.36,333.77l-1.5,2,2.49.5c-1.74.12-3.54-.14-5.28-.02-.64.05-1.14.52-1.21.52-1.75.1-6.8.34-8.16.02-.71-.17-.88-2.32-.83-3.02,4.82-.02,9.67.02,14.49,0Z"/>
      <path class="st9" d="M347.84,276.32h-13.49c-.11-1.23,2.41-3.13,3.37-3.38.54-.14,5.79-.54,6.31-.48,1.45.16,3.3,2.54,3.8,3.86Z"/>
      <path class="st11" d="M350.34,295.81l5.49-.99c-2.97.93-2.38-1.46-2.77-1.54-1.64-.33-4.2.73-5.72-.47,2.43,0,14.24-.42,15.24.49.31.28.75,1.36.74,1.79-.03,1.88-2.04.72-3.22.69-3.25-.07-6.54.03-9.76.02Z"/>
      <path class="st0" d="M347.34,414.2c2.48.03,8.25-.49,10.16-.02.4.1,1.55,2.82,1.33,3.02-5.14.17-10.35-.22-15.48,0l.5-.5c2.29.31,5.12-.22,7.49,0-.22-.98-2.44-.43-3.26-.49-1.42-.1-.52-1.24-.73-2Z"/>
      <path class="st9" d="M410.41,251.21c-.12-.13-1.65-2.93-1.65-3.11-.04-2.51,2.74-.27,3.76-.21,1.73.1,4.74-1.89,5.18,1.32.37,2.67-5.99,3.31-7.29,2Z"/>
      <path class="st9" d="M439.75,236.36h-1.5s.5,1.5.5,1.5c-2.31-1.72-2.08,1.26-3.22.99-.69-.16-5.79-5.53-5.26-5.98,2.1.45,4.47.28,6.5.74,1.33.3,3.5,1.13,2.99,2.75Z"/>
      <path class="st8" d="M287.4,351.76c-2.15-.51-4.19-1.95-6.02-3.23-.8-.56-1.29-.17-.97-1.76,1.11-2.01,2.52-4.78,3-6.99.07,4.04,2.13,8.43,4,11.99Z"/>
      <path class="st1" d="M338.85,354.75c-.04-.66.01-1.34,0-2,1.75-.83,2.79,1.15,2,2-.66.02-1.33,0-2,0,.02.33-.03.67,0,1,1.24.07,2.52-.09,3.76,0,3.3.23-.56,2.15-2.53,2.05-.83-.04-.26-.87-2.23-1.05-.16-.02-.33,0-.5,0,.28-1.51-.76-.96-1.73-1-2.21-.09-8.29,1.07-6.76-2l-2.5.5c-.08-.15-.78-.06-.5-1h11.99c-1.38,1.41-4.69-.71-4.49,1.49,1.83-.02,3.67.03,5.49,0Z"/>
      <path class="st1" d="M304.38,198.89c1.33-.04,2.67.01,4,0l4.49.5c-.23,1.33-3.02-.54-2.49,1.49h2.99s-4.49,1-4.49,1c-3.29-.07-7.98,1.36-7.99-3,1.16-.02,2.34.03,3.5,0Z"/>
      <path class="st14" d="M338.35,332.77s.45.31.37.64c-.2.79-1.18,1.63-.9,2.82-2.72.22-5.54-.17-8.25.01-.65.04-1.13.51-1.21.52-1.48.1-3.01-.09-4.5,0h-2c.07,0,.57-.47,1.21-.52,1.74-.13,3.54.13,5.28.02l-2.49-.5,1.5-2c2.99-.02,6.36.24,9.29.03,1.01-.07,1.23-.08,1.7-1.03Z"/>
      <path class="st15" d="M309.38,198.89c1.5,0,3,0,4.5,0,.5,0,1,0,1.5,0,.67,0,1.33.01,2,0l4.5.5c-.99,1.88-.27.93.5,1.99l-5.99.5c-2.49-.01-5,.05-7.49,0l4.49-.99h-2.99c-.52-2.04,2.26-.17,2.49-1.5l-4.49-.5c.33,0,.67,0,1,0Z"/>
      <path class="st12" d="M347.34,292.81c1.52,1.19,4.08.13,5.72.47.39.08-.21,2.47,2.77,1.54l-5.49.99c-2.82,0-5.67,0-8.49,0l5.49-.5-2.49-.5.5-1.49c-.79-.62-9.38.83-10.99-.5,4.32,0,8.67,0,12.99,0Z"/>
      <path class="st15" d="M334.35,292.81c1.61,1.33,10.2-.11,10.99.5l-.5,1.49,2.49.5-5.49.5c-2.49,0-5,0-7.49,0l3.49-.99c-.85-.16-4.78.2-5,0-.15-.14.12-1.52,0-2h1.5Z"/>
      <path class="st14" d="M349.84,218.38c2.59.25,5.75-.35,8.25,0,.67.09.88-.27.74.75-.53,3.94-6.62,1.69-9.49,2.25.15-.26.66-.49.99-.51.28-.82-1.02-.23-1.02-.77,0-.46.6-1.24.53-1.72Z"/>
      <path class="st14" d="M341.85,178.91l6.49.5-3.99.5c-.53,2.11,2.66.11,2.99,1.49l-3.99.5h-9.99c.09,0,.56-.49,1.21-.52,1.84-.1,3.7.1,5.54.02.61-.02,1.86.38,1.74-.49h-6.49c-2.07-1.58,5.4-.5,4.99-1.5-2.7.22-5.86-.32-8.49,0-.5,0-1,0-1.5,0,3.53-.92,7.78-.5,11.49-.5Z"/>
      <path class="st12" d="M326.36,198.89c.5-.02,1,.02,1.5,0l.75,1-1.75.74,1.5.26-1.5.99c-3.49-.02-7,.02-10.49,0l5.99-.5c-.76-1.06-1.49-.11-.5-1.99l-4.5-.5c2.99-.05,6.01.11,8.99,0Z"/>
      <path class="st15" d="M331.86,179.41c2.63-.32,5.79.23,8.49,0,.41,1-7.06-.08-4.99,1.49h6.49c.12.88-1.13.48-1.74.5-1.84.08-3.7-.12-5.54-.02-.65.03-1.12.51-1.21.52-1.65.12-3.34-.08-5,0,.87-.16,2.12-.93,3.49-.5-.23-1.33-3.01.54-2.5-1.49.97.43,2.04-.45,2.5-.5Z"/>
      <path class="st9" d="M428.26,261.84c1.21,3.58.75,5.87-3.49,5.49.42-3.03-.48-5.18,3.49-5.49Z"/>
      <path class="st5" d="M213.47,491.63c-1.01-1.95-.35-4.49-.56-6.68-.28-2.77-1.18-7.1-1.93-9.81,1.08.51,1.35,2.06,1.64,3.11,1.35,5.02,1.52,8.3.86,13.37Z"/>
      <path class="st12" d="M347.34,414.2c.21.77-.69,1.91.73,2,.83.06,3.04-.49,3.26.49-2.37-.21-5.2.31-7.49,0-.1-.01-1.25-.9-2-.5l.5-2c1.66.06,3.34-.02,5,0Z"/>
      <path class="st5" d="M326.36,354.25l2.5-.5c-1.53,3.07,4.55,1.91,6.76,2,.96.04,2-.51,1.73,1-2.32-.11-8.36.55-9.85-.65-.26-.21-.89-1.41-1.14-1.85Z"/>
      <path class="st14" d="M280.4,346.76c-.32,1.59.17,1.2.97,1.76,1.84,1.28,3.87,2.72,6.02,3.23.17.33.33.67.5,1l.5.5v.5c-.11-.08-.39.08-.5,0-1.85-1.27-4.97-3.44-6.83-4.44-.82-.44-1.32-.72-2.16-.06.32-.46,1.19-1.94,1.5-2.5Z"/>
      <path class="st9" d="M386.3,222.37l-5.49,2.5c.23-3.5,3.04-5.95,5.49-2.5Z"/>
      <path class="st4" d="M250.93,261.84c-.28-1.51.76-.97,1.73-1,4.18-.14,8.86-.17,13.03,0,.96.04,2-.51,1.73,1-6.11-.51-10.35-.44-16.48,0Z"/>
      <path class="st6" d="M446.25,282.32c0,.06-.5.42-.48.79.09,1.55,1.54,4.05-1.02,4.2-.5-1.57-.35-3.25-.38-4.86-.02-1.15.66-.62,1.38-1.13.11.24.43.31.5,1Z"/>
      <path class="st2" d="M366.73,247.45s.03.52.51.86c1,.7,1.39-.76.58,2.53l-3.49-1c-.45-.39,1.47-2.86,2.41-2.39Z"/>
      <path class="st11" d="M326.36,198.89c-2.98.11-6.01-.05-8.99,0-.67.01-1.33,0-2,0,3.22-.84,7.77-.84,10.99,0Z"/>
      <path class="st6" d="M380.81,274.33c.2,1.33-1.9,2.85-2.49,1.24-.65-1.76,1.12-1.22,2.49-1.24Z"/>
      <path class="st2" d="M369.32,244.36v1.99s-1.99,0-1.99,0c-.34-.93,1.57-2.45,1.99-1.99Z"/>
      <path class="st4" d="M267.92,398.71c-1.49.92-4.11.49-5.99.5v-.5c1.94.02,4.08.13,5.99,0Z"/>
      <path class="st4" d="M255.43,399.21c-2.24-.08-3.92-.27-5.99-.5,1.89.25,4.47-.6,5.99.5Z"/>
      <path class="st14" d="M278.91,291.81c-.13.67-.34,1.33-.5,2-1.53-1.12.62-4.52.5-2Z"/>
      <path class="st11" d="M313.87,198.89c-1.5,0-3,0-4.5,0,.93-.84,3.56-.84,4.5,0Z"/>
      <path class="st0" d="M336.35,316.79h-4c.77-.83,3.21-.84,4,0Z"/>
      <path class="st11" d="M304.38,198.89c-1.16.03-2.34-.02-3.5,0,.63-.83,2.87-.83,3.5,0Z"/>
      <path class="st12" d="M323.86,336.77c-.26.02-1.7,1.28-2,0h2Z"/>
      <path class="st2" d="M478.22,329.78c.17,1.41-.97,1.82-1,0h1Z"/>
      <path class="st14" d="M344.84,377.73c-.09-.04-.8,1.08-1-1,.5.17.82.51,1,1Z"/>
      <path class="st4" d="M189.99,348.26c-.13-.46-.33-.88-.5-1.5l.5,1.5Z"/>
      <path class="st1" d="M306.88,303.8l.5-1.5c-.16.43-.35,1.04-.5,1.5Z"/>
      <path class="st4" d="M188.99,344.26c-.01-.05-.35-.18-.5-1l.5,1Z"/>
      <path class="st14" d="M338.35,337.77c-.07-.12.08-.47,0-.5l.25-.5c.52.05.41,1.03-.25,1Z"/>
      <path class="st2" d="M479.22,329.78s.06-.39.5-.5l-.5.5Z"/>
      <path class="st13" d="M288.4,353.26l-.5-.5c.05.1.46.23.5.5Z"/>
      <path class="st15" d="M333.35,295.81h-.5c.06-.1-.09-.41.25-.49l.25.49Z"/>
      <path class="st8" d="M344.34,434.18l-.5-.5c.11.13.44.47.5.5Z"/>
      <path class="st8" d="M345.34,434.18c.16.02.33,0,.5,0l-.25.49-.25-.49Z"/>
      <path class="st2" d="M466.73,283.31c-1.09-1.24.19-4.35,1.26-2.5.42.73-.48,1.45-.03,2.48.62,1.42,4.35,2.98,3.77,5.51-2.48.98-3.13-1.93-4.86-2.41-1.58-.44-5.82,1.64-5.61-2.79.01-.29.84-3.66.98-3.79,1.17-1.07,2.51,4.31,4.49,3.49Z"/>
      <path class="st2" d="M480.21,306.8c.59.64,1.78,5.81,1.5,6.99-1.48-1.02-2.52-4.54-2.51-6.24,0-.8.48-1.34,1.01-.76Z"/>
      <path class="st7" d="M508.69,522.1h-59.44c2.46-36.65,58.07-38.04,59.44,0Z"/>
      <path class="st7" d="M312.87,522.1h-59.44c2.26-36.54,58.01-38.2,59.44,0Z"/>
      <path class="st2" d="M260.79,314.9c12.07-2.47,13.32,13.82,3.81,14.19-8.4.33-11.5-12.62-3.81-14.19Z"/>
      <path class="st10" d="M232.95,348.76c1.18,1.59,3.49,4.25,5,5.5-.79,1.9-1.64,2.12-3,3,.04-.32-.01-.67,0-1-1.39-.13-1.45.83-1.5,2-1.73,1.24-2.85,1.73-4.5,3.5-1.44.48-.79-1.28-1.47-1.77-.79-.57-2.88.1-3.53-1.23.63-.58,5.06-4.43,4.49-4.99-2.13.55-3.81,2.22-5.49,3.49-1.66-2.06.17-2.35,1-3.5.12-.16.34-.33.5-.5,3.83-.18,5.21-2.89,8.49-4.5Z"/>
      <path class="st10" d="M230.45,344.26c.54.6.95,2.2,1.5,3-1.46,2.13-5.19,3.17-6.86,4.64-.38.33-.4,1.1-.63,1.35-.16,0-.33,0-.5,0-.73-.02-3.13-.06-3.43-.57-.42-.7.58-2.44-1.06-2.93,1.08-.58,2.11-1.58,3.48-2.26,2.42-1.21,5.12-1.92,7.51-3.23Z"/>
      <path class="st10" d="M234.95,357.25c-.1.97-.55,1.41-1.25,2-.43.02-.26-.66-.25-1,.49-.35,1-.67,1.5-1Z"/>
      <path class="st10" d="M243.44,357.75c.97.48,2.48,1.15,3.5,1.5-1.79,4.75-3.46,9.66-5,14.49-2.12-1.3-4.79-.62-6.49-2.5,2.21-4.04,4.43-8.09,6.59-12.17.37-.7.2-1.58,1.41-1.31Z"/>
      <path class="st10" d="M220.96,305.8c.51.4,1.48.59,2,1,3.4,2.67,6.92,5.53,9.99,8.49-.21.29-1.09,2.26-1.5,3-5.13-1.64-9.68-4.73-14.49-6.99,1.35-1.76,2.87-3.69,3-5.99.1.08.4-.08.5,0l.5.5Z"/>
      <path class="st10" d="M239.44,355.25c.81.57,1.65,1,2.5,1.5-2.04,4.58-5.01,8.67-7.49,12.99-2.25-1.09-5.29.39-6.99-1.5,3.15-4.09,6.6-7.73,10.08-11.65.57-.64.78-1.38,1.91-1.34Z"/>
      <path class="st10" d="M241.94,291.31c1.63,4.58,3.14,9.31,4.5,13.99-.62.22-3.74,1.36-4,1.5-1.52-3.52-3.8-6.69-5.75-9.98-.56-.95-.85-2.38-1.24-3.01l6.49-2.5Z"/>
      <path class="st10" d="M213.47,320.78c4.14,1.18,9.92,1.46,14.01,3.24,1.12.49,1.15.37.98,1.75-.15.77-.43,1.8-.5,2.5-5.62-.78-11.33-.99-16.98-1.5.04-1.14,2.06-2.42,2.33-3.14.35-.95.14-1.88.16-2.85Z"/>
      <path class="st10" d="M228.45,300.8c2.18,2.46,4.8,5.11,6.98,7.76.66.8,1.34,1.68,1.51,2.73-.6.58-2.07,1.98-2.5,2.5-3.6-2.43-7.56-4.85-10.99-7.49-.35-.27-.66-1.23-1-1.5-.25-1.56,2.02-1.09,3.11-1.54.31-.13.36-.7.54-.8.98-.52,1.83.43,2.34-1.65Z"/>
      <path class="st10" d="M227.95,334.77c0,.5.02,1,0,1.5-.04.82.08,1.66-.02,2.48-2.94.45-6.57,1.31-9.27,2.49-.8.35-1.12,1-1.2,1.03-1.2.24-3.33.13-4.5.5l-1-6.49c5.31-.55,10.7-.7,15.98-1.5Z"/>
      <path class="st10" d="M228.45,339.77c.08.38.76,1.92,1,2.5l.5.5c.09.23-.06.69,0,1-2.88-.62-10.67,4.93-13.99,5.5.09-.48-.48-3.17-.75-3.51-.56-.71-2.18-.04-1.75-1.48,1.18-.42,2.75-1.43,4-2,3.71-.75,7.37-1.36,10.99-2.5Z"/>
      <path class="st10" d="M217.46,313.29c3.83,1.95,7.87,3.54,11.67,5.59.7.37,1.58.2,1.31,1.41-.4.88-1.25,2.23-1.5,3-4.74-1.02-9.33-2.74-13.99-4,1.8-1.76,2.05-3.62,2.5-5.99Z"/>
      <path class="st8" d="M277.91,362.75c1.04,1.42,1.97,3.06,3,4.5-.46,3.03-3.11,1.2-4.66,1.49-.4.07-.32,1.37-1.34,1.01-.03-.08-.65-.33-.87-.86-1.65-3.82-3.61-7.63-4.62-11.63.93-.49,2.17-.93,3-1.5,1.86,2.27,3.76,4.64,5.49,6.99Z"/>
      <path class="st10" d="M251.43,360.25c.58.83.53,1.71.46,2.67-.28,3.58-1.03,7.23-1.46,10.82l-6.49-.5c1.2-3.66,2.12-7.65,3.34-11.4.26-.79.11-1.78,1.16-2.09.85.27,2.08.3,3,.5Z"/>
      <path class="st8" d="M259.42,289.31l.61,2.39,4.89,3.1c-.62,2.51-.72,5.64-1.42,8.34-.33,1.28.22,1.32-1.57,1.15-.74-.18-2.21-.4-3-.5.11-3.74-.14-7.52-.02-11.26.04-1.13.48-2.15.52-3.23Z"/>
      <path class="st10" d="M261.92,360.25c2.01-.14,1.25-.11,1.49,1.24.64,3.61,1.94,7.08,2.01,10.75-1.16-1-4.5-1.91-5.99-1-.13-3.49-.84-6.96-.5-10.49.9-.15,2.28-.33,3-.5Z"/>
      <path class="st14" d="M227.95,328.28c-.2,2.03.04,4.4,0,6.49-5.29.8-10.67.95-15.98,1.5-2.82.29-5.68.66-8.49,1v-1c.65-.06,1.34-.43,2-.5,3.32-.35,6.67-.64,9.99-1,3.98-.44,7.97-1.07,11.99-1v-4.5c-4.68.48-8.94-.51-13.49-1-1.02-.11-1.98-.39-3-.5,0-.33-.01-.67,0-1,5.65.51,11.36.72,16.98,1.5Z"/>
      <path class="st8" d="M272.41,297.31c-1.19,3.04-2.61,6.22-4.5,8.99-1.13-.49-2.44-.65-3.5-1-.17-3.15,1.32-6.04,2-8.99l5.99,1Z"/>
      <path class="st8" d="M287.9,353.76c.06.7-.51,2.28-.95,2.68-.96.86-2.43-.43-2.05,1.32-.12-.11-.96-.19-1.51-.71-2.02-1.91-4.32-3.52-5.98-5.78.45-.54,1.09-1.41,1.5-2,.84-.66,1.34-.38,2.16.06,1.86,1,4.98,3.16,6.83,4.44Z"/>
      <path class="st10" d="M241.94,307.3c-.44.25-3.81,2.35-4,2.5-1.97-1.59-3.46-4.22-5-5.99,2.59-1.18,3.48-.92,4-4,1.54,2.58,3.15,5.12,5,7.49Z"/>
      <path class="st10" d="M281.4,358.25c-1.53,1.11-1.08,3.11-2,4.5-.15-.19-.86-.3-1-.5-1-1.39-3.21-4.48-3.93-5.83-.44-.82-.72-1.32-.06-2.16.38-.31,1.51-1.51,2-2,1.3.9,2.43,2.09,3.48,3.26.69.76,1.39,2.64,1.51,2.74Z"/>
      <path class="st10" d="M250.93,296.31c.36,2.49,1.01,4.95,1,7.49-.68.09-2.58.75-3.5,1-2.12-1.82-2.2-5.82-3-7.99,2.2.98,3.33-.85,5.49-.5Z"/>
      <path class="st10" d="M257.43,361.25c.17,2.34.38,4.64.5,6.99-4.08,0-4.33-.98-5.49,3-.39-3.44.61-6.63,1-9.99.82.15,3.11.11,4,0Z"/>
      <path class="st14" d="M202.48,316.29c1.08,0,4.27.7,5.49,1,2.21.54,4.7,1.38,6.99,2,4.66,1.26,9.25,2.98,13.99,4-.08.25-.39,1.93-.5,2.5.17-1.38.15-1.26-.98-1.75-4.09-1.78-9.87-2.07-14.01-3.24-2.37-.67-5.48-2.21-8.49-3-1.17-.31-2.29-.79-3.5-1,.12-.48.58-.5,1-.5Z"/>
      <path class="st14" d="M216.96,311.29c4.8,2.26,9.36,5.35,14.49,6.99-.3.54-.74,1.43-1,2,.27-1.21-.62-1.03-1.31-1.41-3.81-2.04-7.84-3.64-11.67-5.59-2.17-1.1-5.02-2.33-6.99-3.5-.67-.39-2.28-1.35-2.5-2,3.26.87,5.88,2.03,8.99,3.5Z"/>
      <path class="st14" d="M207.97,307.3c0,.17-.04.38,0,.5-.28-.07-.7.06-1,0l1-.5Z"/>
      <path class="st14" d="M221.96,291.31c1.19,1.83,3.11,3.41,4.5,5,2.12,2.43,4.35,5.01,6.49,7.49,1.53,1.78,3.02,4.4,5,5.99-.07.06-.25.79-1,1.5-.18-1.05-.86-1.94-1.51-2.73-2.18-2.64-4.8-5.3-6.98-7.76-.85-.96-1.65-2.03-2.5-3-.69-.79-4.64-5.4-5-5.5-.39-1.26.94-.92,1-1Z"/>
      <path class="st14" d="M229.95,286.32c.09.05,1.35,1.21,1.48,1.38,1.01,1.31,3.07,4.58,4.01,6.11.39.63.68,2.06,1.24,3.01,1.95,3.29,4.23,6.46,5.75,9.98-.15.08-.29.38-.5.5-1.85-2.38-3.45-4.91-5-7.49-1.41-2.36-3.22-5.18-4.5-7.49-1.16-2.11-1.79-3.76-2.5-5.99Z"/>
      <path class="st14" d="M228.95,285.82l-.75-1.99c.48.49,1.55.76,1.75,1.49.08.28-.08.73,0,1-.2-.1-.94-.49-1-.5Z"/>
      <path class="st14" d="M274.91,369.74c.85,1.98,1.68,4.84,2.5,6.99.12.31,1.93,4.39,0,2.5-.12-.12-1.26-2.49-1.51-3-.44-.9-.91-2.28-1.5-3.5-1.49-3.09-3.17-6.36-4.5-9.49-.58-1.38-.77-3.69-2-5,.28-.12.95-.71,1.5-1,1.01,4,2.98,7.81,4.62,11.63.23.53.84.78.87.86Z"/>
      <path class="st14" d="M243.44,357.75c-1.21-.26-1.04.61-1.41,1.31-2.15,4.08-4.37,8.13-6.59,12.17-.63,1.14-1.99,2.44-2.5,3.5h-.5c.58-1.17.98-3.22,2-5,2.48-4.32,5.45-8.41,7.49-12.99.52.3,1.15.83,1.5,1Z"/>
      <path class="st10" d="M267.92,358.25c1.23,1.31,1.42,3.62,2,5l-.29.38-3.2-.39c.46.97-.49,2.37-.5,2.5-.09-2.26-2.29-4.43-1-6.49.94-.3,2.11-.61,3-1Z"/>
      <path class="st4" d="M229.95,343.76c.3.07.36.34.5.5-2.38,1.32-5.08,2.02-7.51,3.23-1.37.69-2.41,1.68-3.48,2.26-.79.43-3.88,2.04-4.49,1.5-.32-.94.88-1.32,1-2,3.31-.56,11.11-6.12,13.99-5.5Z"/>
      <path class="st14" d="M242.44,289.31c.9,2.41,2.1,5.06,3,7.49.8,2.18.87,6.17,3,7.99-.6.16-1.65.38-2,.5-1.36-4.68-2.87-9.41-4.5-13.99-.26-.74-.32-1.5-.5-2h1Z"/>
      <path class="st14" d="M234.45,313.79c-.64.77-1.43,1.4-1.5,1.5-3.07-2.97-6.59-5.83-9.99-8.49l.5-.5c3.43,2.64,7.39,5.06,10.99,7.49Z"/>
      <path class="st15" d="M284.9,357.75c.11.1.85,1.87,1.5,2.5l-.5.5c-.8-1.42-3.96-2.09-4.5-2.5-.12-.09-.82-1.97-1.51-2.74-1.05-1.17-2.18-2.36-3.48-3.26.3-.3.8-.76,1-1,1.66,2.26,3.97,3.87,5.98,5.78.55.53,1.39.6,1.51.71Z"/>
      <path class="st14" d="M217.46,342.27c-1.25.57-2.82,1.58-4,2s-3.81.61-5,1v-.5c2.12-.41,3.53-1.69,4.5-2,1.16-.37,3.29-.26,4.5-.5Z"/>
      <path class="st14" d="M228.45,339.77c-3.62,1.14-7.28,1.75-10.99,2.5.07-.03.39-.68,1.2-1.03,2.7-1.18,6.33-2.04,9.27-2.49.11-.82-.02-1.65.02-2.48,1.01.7.29,2.47.5,3.5Z"/>
      <path class="st14" d="M223.96,353.76v-.5c.17,0,.33,0,.5,0-.16.17-.38.34-.5.5Z"/>
      <path class="st14" d="M232.95,348.76c-3.28,1.61-4.66,4.32-8.49,4.5.23-.25.25-1.02.63-1.35,1.68-1.47,5.4-2.51,6.86-4.64.33.48.67,1.06,1,1.5Z"/>
      <path class="st14" d="M274.41,354.25c-.66.84-.38,1.34.06,2.16.72,1.35,2.93,4.45,3.93,5.83l-.5.5c-1.74-2.36-3.63-4.73-5.49-6.99.31-.21,1.71-1.26,2-1.5Z"/>
      <path class="st13" d="M257.93,303.3c-.29-.01-3.63.41-4.5.5v-.5l4.5-.5v.5Z"/>
      <path class="st4" d="M229.95,342.76l-.5-.5s.35.12.5.5Z"/>
      <path class="st2" d="M339.35,258.34c-1.46-1.82,1.43-1.94,2.23-3.51.32-.62.27-1.32.27-1.98,2.73.62,6.66,6.2,6.03,8.7-.03.14-2.4,1.28-2.54,1.29-1.09.07-4.86-3.6-5.99-4.5Z"/>
      <path class="st2" d="M334.85,244.85c.05,1.91,3.3,3.9,3.43,5.33.06.71-2.76,3.41-3.43,4.16-.82-.77-3.39-1.54-3.47-3.22-.02-.35,1.73-6.52,1.98-6.77.17-.17,1.17.32,1.49.5Z"/>
      <path class="st13" d="M238.44,283.32c.16-.03.34,0,.5,0,.05,2.24,1.88,4.3,2.5,5.99.18.5.24,1.26.5,2l-6.49,2.5c-.95-1.54-3-4.81-4.01-6.11-.13-.17-1.39-1.34-1.48-1.38-.08-.27.08-.72,0-1,2.77-.34,5.81-1.54,8.49-2Z"/>
      <path class="st13" d="M228.95,285.82c.06,0,.8.4,1,.5.71,2.23,1.34,3.88,2.5,5.99-1.97,1.31-4.69,1.91-5.99,4-1.38-1.59-3.31-3.16-4.5-5,.72-.92.83-2.33,2.24-3.51.94-.79,3.57-2.11,4.75-1.99Z"/>
      <path class="st13" d="M258.42,285.32c-.1,3-.42,5.96-.5,8.99-1.17-.25-.95,1.11-1.95,1.29-1.14.2-3.83-1.29-3.54.71-.66-3.85-1.42-7.61-2-11.49,2.74.83,5.19.93,7.99.5Z"/>
      <path class="st4" d="M266.42,289.31l-6.99-4c.03-.95-.22-5.79,0-6,1.29-1.27,8.05,3.32,8.41,4.85s-1.13,3.96-1.42,5.15Z"/>
      <path class="st8" d="M249.93,289.31c.39,2.32.66,4.67,1,6.99-2.16-.35-3.29,1.48-5.49.5-.9-2.43-2.1-5.08-3-7.49-.09-.25.09-.72,0-1,2.71-.4,4.72,1.56,7.49,1Z"/>
      <path class="st13" d="M239.44,282.32l2.72-.48,6.77,1.98c.33,1.84.69,3.65,1,5.5-2.78.56-4.78-1.4-7.49-1-.04-.15-.78-.45-.94-.92-.47-1.33-1.12-2.59-1.09-4.05-.31-.13-.65,0-.96-.03-.03-.33.04-.68,0-1Z"/>
      <path class="st4" d="M250.43,284.82c-.16-1.04-1.4-6.02-1-6.49h2.99c-.42,2.34.98,1.24,2.69,1.55,4.17.76,3.44,1.34,3.31,5.44-2.8.43-5.26.33-7.99-.5Z"/>
      <path class="st4" d="M239.44,282.32c-.17-1.36-1.09-2.55-.99-3.98l9.48-1.52c.17,2.33.59,4.7,1,6.99l-6.77-1.98-2.72.48Z"/>
      <path class="st10" d="M257.93,294.31c-.07,2.82.05,5.67,0,8.49l-4.5.5c-.56-2.28-.6-4.7-1-6.99-.29-2,2.4-.51,3.54-.71,1.01-.18.79-1.54,1.95-1.29Z"/>
      <path class="st13" d="M266.42,289.31c-.45,1.86-1.08,3.79-1.5,5.5l-4.89-3.1-.61-2.39c.05-1.33-.04-2.67,0-4l6.99,4Z"/>
      <path class="st13" d="M267.42,291.31c1.05,0,3.12-.14,3.89.62.35.35.3,1.14.58,1.51.7.93,1.87.39,1.46,2.53-.14.72-.82,1.07-.93,1.33l-5.99-1c.38-1.65.58-3.32,1-5Z"/>
      <path class="st4" d="M239.44,283.32c.31.03.65-.1.96.03-.02,1.46.62,2.72,1.09,4.05.17.47.9.77.94.92.09.28-.09.75,0,1h-1c-.62-1.69-2.45-3.76-2.5-5.99.16,0,.34-.02.5,0Z"/>
      <path class="st8" d="M213.47,344.26c-.43,1.44,1.19.77,1.75,1.48.27.34.84,3.03.75,3.51-.12.68-1.32,1.06-1,2,.61.54,3.7-1.07,4.49-1.5,1.64.49.65,2.23,1.06,2.93.3.51,2.7.55,3.43.57v.5c-.83,1.15-2.66,1.44-1,3.5-.66.5-1.36.99-2,1.5-3.44.69-3.96-2.23-6.49-3.5,1.04-.68,3.82-2.04,3.24-3.5-2.12,1.07-4.2,2.31-6.24,3.5-1.67-2.99-5.19-5.09-4.5-8.99,1.08-.37,1.41-.97,1.5-1,1.18-.39,3.87-.6,5-1ZM218.71,351.26v.5c.32-.17.32-.33,0-.5Z"/>
      <path class="st8" d="M211.97,336.27l1,6.49c-.97.31-2.38,1.59-4.5,2-1.24.24-3.47.72-4.48.25-.89-.41-5.12-5.53-5.5-6.5s.31-.62.75-.73c1.38-.34,2.85-.35,4.24-.51,2.82-.34,5.67-.71,8.49-1Z"/>
      <path class="st13" d="M207.97,307.3c.03-2.02,1.29-1.84,2.28-3.46.77-1.26,1.43-3.54,1.72-5.03l7.64,5.49c.46.36.31.97.35,1.01-.13,2.3-1.65,4.24-3,5.99-3.11-1.46-5.73-2.63-8.99-3.5-.04-.12,0-.33,0-.5Z"/>
      <path class="st13" d="M206.97,307.8c.3.06.72-.07,1,0,.21.65,1.83,1.6,2.5,2-.39,2.66-2.8,4.77-2.5,7.49-1.23-.3-4.41-1-5.49-1-1.11-3.75.23-6.11,1.52-9.48,1.18-.35,2.13.8,2.98.99Z"/>
      <path class="st13" d="M205.47,327.28c.47,2.79.56,5.74,0,8.49-.66.07-1.35.44-2,.5-1.97.17-3.99.09-5.95.46-1.9-3.97.88-6.29,1.5-9.9.35-.3,5.35.35,6.44.45Z"/>
      <path class="st8" d="M213.47,320.78c-.03.97.19,1.9-.16,2.85-.27.73-2.3,2.01-2.33,3.14-2.82-.25-5.8-.73-8.49-1-.27-2.99,2.25-5.12,2.5-7.99,3.01.79,6.13,2.33,8.49,3Z"/>
      <path class="st8" d="M210.97,327.78c1.02.11,1.98.39,3,.5-.55,1.92,1.53,1.56,1.92,2.84.36,1.21-.11,2.49-.42,3.65-3.32.36-6.67.65-9.99,1,.56-2.75.47-5.7,0-8.49,1.8.16,3.7.3,5.49.5Z"/>
      <path class="st13" d="M214.47,355.25c2.53,1.27,3.05,4.19,6.49,3.5-1.09.87-6.44,5.92-6.99,5.99-2.99.4-5.4-3.12-6.03-5.7.08-.53,5.66-3.22,6.53-3.79Z"/>
      <path class="st13" d="M211.47,355.25c-1.06.62-4.15,3.11-5.17,2.92-.3-.06-3.39-3.06-3.56-3.42-1.06-2.33.69-5.16-.26-7.48,1.59.06,3.03-.51,4.5-1-.7,3.9,2.83,6.01,4.5,8.99Z"/>
      <path class="st13" d="M220.96,292.31c.36.09,4.31,4.71,5,5.5-3.4.61-6.26.52-9.49,2-.55-.45-3.05-.74-3.44-2.32,1.09-2.61,4.88-5.94,7.94-5.17Z"/>
      <path class="st13" d="M241.94,373.74c-.64,2.02-1.35,4-2,5.99-3.05.3-4.91-2.08-7.99-1-.37-.36.69-3.35,1-3.99.51-1.06,1.87-2.35,2.5-3.5,1.7,1.88,4.37,1.19,6.49,2.5Z"/>
      <path class="st13" d="M234.45,369.74c-1.02,1.77-1.41,3.82-2,5-.02.05-.74-.12-1,.34-.38.67-.66,1.95-.96,2.35-.95,1.24-1.08-.52-1.56-.9-1.68-1.32-3.36-1.97-5.47-2.3-.48-.67,3.32-5.11,4-5.99,1.7,1.89,4.74.41,6.99,1.5Z"/>
      <path class="st8" d="M223.96,358.75c.64,1.33,2.73.67,3.53,1.23.68.49.03,2.24,1.47,1.77-.58.62-.82,1.8-1,2-1.39,1.49-3.56,3.02-5,4.5l-5-4c1.82-1.42,4.21-3.84,5.99-5.5Z"/>
      <path class="st8" d="M227.95,363.75c.07-.07,1.63-.21,1.99-.25l-1.25,1.75c-1.02.46-.9-1.33-.74-1.49Z"/>
      <path class="st13" d="M201.48,316.79c1.21.21,2.33.69,3.5,1-.24,2.87-2.77,5-2.5,7.99-1.45-.14-2.97.2-4.42-.07-.77-.48-.8-6.82-.31-7.91.9-2.02,2.28-1.26,3.74-1.01Z"/>
      <path class="st8" d="M225.96,297.81c.84.97,1.65,2.04,2.5,3-.51,2.09-1.36,1.13-2.34,1.65-.19.1-.23.68-.54.8-1.09.45-3.36-.02-3.11,1.54-2.08-1.63-4.19-3.53-5.99-5,3.23-1.48,6.09-1.39,9.49-2Z"/>
      <path class="st13" d="M217.96,364.25l5,4c-.46.47-.91,2.22-2.22,3.02-2.48,1.51-2.06-.21-3.24-1.3-2.64-2.46-1.38-1.66-2.54-3.72.61-1.09,2.34-1.49,3-2Z"/>
      <path class="st14" d="M222.96,357.25c1.69-1.28,3.36-2.94,5.49-3.49.57.56-3.87,4.41-4.49,4.99-1.78,1.65-4.18,4.07-5.99,5.5-.65.51-2.39.91-3,2-.06-.1-1.54.25-1-1.5.55-.07,5.9-5.13,6.99-5.99.64-.51,1.34-1,2-1.5Z"/>
      <path class="st14" d="M220.46,290.31c-.52.51-2-.99-1.49-1.49s2,.99,1.49,1.49Z"/>
      <path class="st8" d="M227.71,365.75c.51.45-.75,1.27-.74.74l.74-.74Z"/>
      <path class="st14" d="M213.22,366.24c.32.17.32.33,0,.5v-.5Z"/>
      <path class="st8" d="M226.21,367.24c.32.17.32.33,0,.5v-.5Z"/>
      <path class="st13" d="M220.96,305.8l-.5-.5c.18.14.32.36.5.5Z"/>
      <path class="st13" d="M250.43,373.74c-.3,2.53-.63,4.98-1,7.49-2.99.25-5.15,1.03-7.99-.5.79-2.53,1.7-5.04,2.5-7.49l6.49.5Z"/>
      <path class="st8" d="M269.91,363.25c1.32,3.13,3.01,6.41,4.5,9.49l-6.99,1c-.47-2.37-1.66-5.75-1.5-7.99,0-.13.96-1.53.5-2.5l3.2.39.29-.38Z"/>
      <path class="st8" d="M265.42,372.24c.98.84,1.71,4.98,2,6.49-2.99-.9-5.97.34-7.49,3-.37-3.52-.37-6.86-.5-10.49,1.5-.91,4.83,0,5.99,1Z"/>
      <path class="st4" d="M249.43,381.23c-.21,1.41.56,3.48-.71,4.53-1.08.9-9,2.25-9.32.64-.34-1.74,1.57-4.18,2.04-5.68,2.85,1.53,5.01.75,7.99.5Z"/>
      <path class="st4" d="M258.92,381.73c.07,1.64-.01,3.32-.03,4.97-2.92.87-5.5-.69-8.41-1.02-.39-1.86.24-3.64.45-5.44,2.76.16,5.35.8,7.99,1.5Z"/>
      <path class="st13" d="M257.93,373.74c.15,2.4.9,5.56,1,7.99-2.64-.7-5.23-1.33-7.99-1.5.22-1.91.63-3.63,1-5.5l.27.48,5.72-1.48Z"/>
      <path class="st4" d="M267.42,378.73c.18.95,1.01,2.33.4,3.4-.41.7-7.2,4.27-7.89,3.59-.1-1.31.13-2.7,0-4,1.52-2.66,4.51-3.9,7.49-3Z"/>
      <path class="st13" d="M274.41,372.74c.59,1.22,1.06,2.6,1.5,3.5-1.41.67-3.88.52-5.14,1.5-.62.49-.18,1.89-1.86,1.99-.47-1.99-1.1-3.97-1.5-5.99l6.99-1Z"/>
      <path class="st8" d="M257.93,368.24c.09,1.82-.12,3.68,0,5.5l-5.72,1.48-.27-.48c.25-1.24.03-1.9.5-3.5,1.16-3.98,1.42-3,5.49-3Z"/>
      <path class="st4" d="M228.95,407.71c1.33-.8,5.83,2.77,4.99,3.49-2.89.99-3.95-2.61-6.49-1,.1-.55-.23-1.39.09-1.91.19-.31,1.09-.33,1.41-.58Z"/>
      <path class="st15" d="M184.99,404.71v.99s-1.5,0-1.5,0c.17-.72.81-1.15,1.5-.99Z"/>
      <path class="st0" d="M370.82,413.2c.15.15.32,1.9-.74,1.49-1.81-.69-.13-2.36.74-1.49Z"/>
      <path class="st2" d="M397.79,226.87s.39.4.5.5c.59,5.09-2.91,5.81-2.51.24.1-1.43,1.24-.53,2.01-.74Z"/>
      <path class="st13" d="M280.9,367.24c.97,1.35,3.9,4,3.53,5.69-3.19.68-3.85,4.37-7.03,3.8-.81-2.16-1.65-5.01-2.5-6.99,1.01.36.94-.94,1.34-1.01,1.55-.28,4.19,1.54,4.66-1.49Z"/>
      <path class="st13" d="M285.9,360.75l2.5,3.49c-1.5.55-3.94,2.88-4,4.51-.78.18-.8-.13-1.21-.54-1.53-1.51-2.59-3.89-3.78-5.46.92-1.38.46-3.38,2-4.5.54.41,3.69,1.08,4.5,2.5Z"/>
      <polygon class="st1" points="307.88 437.18 307.88 434.68 324.86 434.69 322.87 435.18 323.86 437.18 307.88 437.18"/>
      <path class="st14" d="M339.85,334.78v.49c-2.08.25-2.08-.74,0-.49Z"/>
      <path class="st8" d="M217.46,313.29c-.44,2.38-.7,4.23-2.5,5.99-2.3-.62-4.78-1.46-6.99-2-.3-2.73,2.1-4.83,2.5-7.49,1.98,1.17,4.82,2.39,6.99,3.5Z"/>
      <path class="st10" d="M213.97,328.28c4.55.48,8.81,1.48,13.49,1v4.5c-4.02-.08-8.02.56-11.99,1,.31-1.16.78-2.44.42-3.65-.38-1.29-2.47-.92-1.92-2.84Z"/>
      <path class="st8" d="M236.95,299.8c-.52,3.08-1.4,2.81-4,4-2.15-2.49-4.38-5.06-6.49-7.49,1.31-2.09,4.03-2.69,5.99-4,1.27,2.32,3.08,5.13,4.5,7.49Z"/>
      <path class="st8" d="M231.93,361.73c-.05.08-1.19.69-1.47,1.02-.2-.95.64-1.35,1.25-1.99.42-.05.32.82.23.98Z"/>
      <path class="st4" d="M218.71,351.26c.32.17.32.33,0,.5v-.5Z"/>
    </g>
  </g>
</svg>